<mxfile host="app.diagrams.net" modified="2024-07-17T10:43:19.445Z" agent="Mozilla/5.0 (Windows NT 10.0; Win64; x64) AppleWebKit/537.36 (KHTML, like Gecko) Chrome/126.0.0.0 Safari/537.36" etag="3e3AfG6P02KzaVp136ty" version="24.7.0" type="device">
  <diagram name="Pagina-1" id="NF6XjJhp0R-p85eVDP7y">
    <mxGraphModel dx="4826" dy="964" grid="1" gridSize="10" guides="1" tooltips="1" connect="1" arrows="1" fold="1" page="1" pageScale="1" pageWidth="827" pageHeight="1169" math="0" shadow="0">
      <root>
        <mxCell id="0" />
        <mxCell id="1" parent="0" />
        <mxCell id="n8yumlOVsB6OTQwj1mip-1" value="SourceFactory" style="html=1;whiteSpace=wrap;" vertex="1" parent="1">
          <mxGeometry x="130" y="360" width="110" height="50" as="geometry" />
        </mxCell>
        <mxCell id="n8yumlOVsB6OTQwj1mip-4" value="EventSource" style="html=1;whiteSpace=wrap;" vertex="1" parent="1">
          <mxGeometry x="130" y="440" width="110" height="50" as="geometry" />
        </mxCell>
        <mxCell id="n8yumlOVsB6OTQwj1mip-5" value="EventSim" style="html=1;whiteSpace=wrap;" vertex="1" parent="1">
          <mxGeometry x="230" y="550" width="120" height="50" as="geometry" />
        </mxCell>
        <mxCell id="n8yumlOVsB6OTQwj1mip-6" value="EventReadFromFile" style="html=1;whiteSpace=wrap;" vertex="1" parent="1">
          <mxGeometry x="30" y="550" width="120" height="50" as="geometry" />
        </mxCell>
        <mxCell id="n8yumlOVsB6OTQwj1mip-8" value="Event" style="html=1;whiteSpace=wrap;" vertex="1" parent="1">
          <mxGeometry x="-260" y="480" width="110" height="50" as="geometry" />
        </mxCell>
        <mxCell id="n8yumlOVsB6OTQwj1mip-9" value="AnalysisInfo" style="html=1;whiteSpace=wrap;" vertex="1" parent="1">
          <mxGeometry x="-260" y="400" width="110" height="50" as="geometry" />
        </mxCell>
        <mxCell id="n8yumlOVsB6OTQwj1mip-11" value="AnalysisFactory&lt;div&gt;&lt;br&gt;&lt;/div&gt;&lt;div&gt;&lt;br&gt;&lt;/div&gt;&lt;div&gt;&lt;br&gt;&lt;/div&gt;&lt;div&gt;&lt;br&gt;&lt;/div&gt;&lt;div&gt;&lt;br&gt;&lt;/div&gt;" style="html=1;whiteSpace=wrap;" vertex="1" parent="1">
          <mxGeometry x="-630" y="360" width="160" height="90" as="geometry" />
        </mxCell>
        <mxCell id="n8yumlOVsB6OTQwj1mip-14" value="AbsFactory" style="html=1;whiteSpace=wrap;" vertex="1" parent="1">
          <mxGeometry x="-606" y="390" width="110" height="50" as="geometry" />
        </mxCell>
        <mxCell id="n8yumlOVsB6OTQwj1mip-15" value="ARCHITETTURA&lt;div&gt;&lt;br&gt;&lt;/div&gt;&lt;div&gt;&lt;b&gt;ParticleMass&lt;/b&gt; analizza &lt;b&gt;un singolo&lt;/b&gt; evento e si occupa di calcolare la massa invariante, cioÃ¨ stabilisce il decadimento verificatosi&lt;/div&gt;&lt;div&gt;&lt;br&gt;&lt;/div&gt;&lt;div&gt;&lt;b&gt;EventDump&lt;/b&gt; stampa i dati di &lt;b&gt;un&lt;/b&gt; evento&lt;/div&gt;&lt;div&gt;&lt;br&gt;&lt;/div&gt;&lt;div&gt;&lt;b&gt;AnalysisSteering&lt;/b&gt; analizza l&#39;evento nelle tre fasi beginJob(), process(), endJob() a partire dalle informazioni passate da riga di comando (e.g.&amp;nbsp;./main input ../bragg_events.dat plot hh.root)&lt;/div&gt;&lt;div&gt;&lt;br&gt;&lt;/div&gt;&lt;div&gt;&lt;b&gt;EventSource&lt;/b&gt;&amp;nbsp;gestisce la sorgente dei dati manipolando di fatto la funzione get()&lt;br&gt;&lt;div&gt;&lt;br&gt;&lt;/div&gt;&lt;/div&gt;" style="html=1;whiteSpace=wrap;" vertex="1" parent="1">
          <mxGeometry x="-480" y="70" width="570" height="230" as="geometry" />
        </mxCell>
        <mxCell id="n8yumlOVsB6OTQwj1mip-16" value="" style="endArrow=block;endFill=1;html=1;edgeStyle=orthogonalEdgeStyle;align=left;verticalAlign=top;rounded=0;exitX=0.5;exitY=0;exitDx=0;exitDy=0;entryX=0.5;entryY=1;entryDx=0;entryDy=0;" edge="1" parent="1" source="n8yumlOVsB6OTQwj1mip-5" target="n8yumlOVsB6OTQwj1mip-4">
          <mxGeometry x="-1" relative="1" as="geometry">
            <mxPoint x="260" y="560" as="sourcePoint" />
            <mxPoint x="180" y="480" as="targetPoint" />
            <Array as="points">
              <mxPoint x="290" y="520" />
              <mxPoint x="185" y="520" />
            </Array>
          </mxGeometry>
        </mxCell>
        <mxCell id="n8yumlOVsB6OTQwj1mip-17" value="" style="endArrow=block;endFill=1;html=1;edgeStyle=orthogonalEdgeStyle;align=left;verticalAlign=top;rounded=0;exitX=0.5;exitY=0;exitDx=0;exitDy=0;entryX=0.5;entryY=1;entryDx=0;entryDy=0;" edge="1" parent="1" target="n8yumlOVsB6OTQwj1mip-4">
          <mxGeometry x="-1" relative="1" as="geometry">
            <mxPoint x="95" y="550" as="sourcePoint" />
            <mxPoint x="-10" y="490" as="targetPoint" />
            <Array as="points">
              <mxPoint x="95" y="520" />
              <mxPoint x="185" y="520" />
            </Array>
          </mxGeometry>
        </mxCell>
        <mxCell id="n8yumlOVsB6OTQwj1mip-35" value="&lt;b&gt;ParticleMass&lt;/b&gt;" style="swimlane;fontStyle=0;childLayout=stackLayout;horizontal=1;startSize=26;fillColor=none;horizontalStack=0;resizeParent=1;resizeParentMax=0;resizeLast=0;collapsible=1;marginBottom=0;whiteSpace=wrap;html=1;movable=1;resizable=1;rotatable=1;deletable=1;editable=1;locked=0;connectable=1;" vertex="1" parent="1">
          <mxGeometry x="-2000" y="3070" width="640" height="380" as="geometry" />
        </mxCell>
        <mxCell id="n8yumlOVsB6OTQwj1mip-36" value="&lt;div style=&quot;color: rgb(204, 204, 204); background-color: rgb(31, 31, 31); font-family: Consolas, &amp;quot;Courier New&amp;quot;, monospace; font-size: 14px; line-height: 19px; white-space: pre;&quot;&gt;&lt;div&gt;&lt;span style=&quot;color: #569cd6;&quot;&gt;public:&lt;/span&gt;&lt;/div&gt;&lt;div&gt;&amp;nbsp; &amp;nbsp; &amp;nbsp; &amp;nbsp; &lt;span style=&quot;color: rgb(220, 220, 170);&quot;&gt;ParticleMass&lt;/span&gt;( &lt;span style=&quot;color: rgb(86, 156, 214);&quot;&gt;const&lt;/span&gt; &lt;span style=&quot;color: rgb(78, 201, 176);&quot;&gt;AnalysisInfo&lt;/span&gt;&lt;span style=&quot;color: rgb(86, 156, 214);&quot;&gt;*&lt;/span&gt; &lt;span style=&quot;color: rgb(156, 220, 254);&quot;&gt;info&lt;/span&gt;);&lt;br&gt;&lt;/div&gt;&lt;div&gt;&amp;nbsp; &amp;nbsp; &amp;nbsp; &amp;nbsp; &lt;span style=&quot;color: rgb(220, 220, 170);&quot;&gt;ParticleMass&lt;/span&gt;( &lt;span style=&quot;color: rgb(86, 156, 214);&quot;&gt;const&lt;/span&gt; &lt;span style=&quot;color: rgb(78, 201, 176);&quot;&gt;ParticleMass&lt;/span&gt;&lt;span style=&quot;color: rgb(86, 156, 214);&quot;&gt;&amp;amp;&lt;/span&gt; &lt;span style=&quot;color: rgb(156, 220, 254);&quot;&gt;x&lt;/span&gt; ) &lt;span style=&quot;color: rgb(212, 212, 212);&quot;&gt;=&lt;/span&gt; &lt;span style=&quot;color: rgb(86, 156, 214);&quot;&gt;delete&lt;/span&gt;;&lt;br&gt;&lt;/div&gt;&lt;div&gt;&amp;nbsp; &amp;nbsp; &amp;nbsp; &amp;nbsp; &lt;span style=&quot;color: rgb(78, 201, 176);&quot;&gt;ParticleMass&lt;/span&gt;&lt;span style=&quot;color: rgb(86, 156, 214);&quot;&gt;&amp;amp;&lt;/span&gt; &lt;span style=&quot;color: rgb(220, 220, 170);&quot;&gt;operator=&lt;/span&gt;( &lt;span style=&quot;color: rgb(86, 156, 214);&quot;&gt;const&lt;/span&gt; &lt;span style=&quot;color: rgb(78, 201, 176);&quot;&gt;ParticleMass&lt;/span&gt;&lt;span style=&quot;color: rgb(86, 156, 214);&quot;&gt;&amp;amp;&lt;/span&gt; &lt;span style=&quot;color: rgb(156, 220, 254);&quot;&gt;x&lt;/span&gt; ) &lt;span style=&quot;color: rgb(212, 212, 212);&quot;&gt;=&lt;/span&gt; &lt;span style=&quot;color: rgb(86, 156, 214);&quot;&gt;delete&lt;/span&gt;;&lt;br&gt;&lt;/div&gt;&lt;div&gt;&amp;nbsp; &amp;nbsp; &amp;nbsp; &amp;nbsp; &lt;span style=&quot;color: rgb(220, 220, 170);&quot;&gt;~ParticleMass&lt;/span&gt;() &lt;span style=&quot;color: rgb(86, 156, 214);&quot;&gt;override&lt;/span&gt;;&lt;br&gt;&lt;/div&gt;&lt;br&gt;&lt;div&gt;&amp;nbsp; &amp;nbsp; &amp;nbsp; &amp;nbsp; &lt;span style=&quot;color: rgb(86, 156, 214);&quot;&gt;void&lt;/span&gt; &lt;span style=&quot;color: rgb(220, 220, 170);&quot;&gt;beginJob&lt;/span&gt;() &lt;span style=&quot;color: rgb(86, 156, 214);&quot;&gt;override&lt;/span&gt;;&lt;/div&gt;&lt;div&gt;&amp;nbsp; &amp;nbsp; &amp;nbsp; &amp;nbsp; &lt;span style=&quot;color: rgb(86, 156, 214);&quot;&gt;void&lt;/span&gt; &amp;nbsp; &lt;span style=&quot;color: rgb(220, 220, 170);&quot;&gt;endJob&lt;/span&gt;() &lt;span style=&quot;color: rgb(86, 156, 214);&quot;&gt;override&lt;/span&gt;;&lt;br&gt;&lt;/div&gt;&lt;div&gt;&amp;nbsp; &amp;nbsp; &amp;nbsp; &amp;nbsp; &lt;span style=&quot;color: rgb(86, 156, 214);&quot;&gt;void&lt;/span&gt; &lt;span style=&quot;color: rgb(220, 220, 170);&quot;&gt;update&lt;/span&gt;( &lt;span style=&quot;color: rgb(86, 156, 214);&quot;&gt;const&lt;/span&gt; &lt;span style=&quot;color: rgb(78, 201, 176);&quot;&gt;Event&lt;/span&gt;&lt;span style=&quot;color: rgb(86, 156, 214);&quot;&gt;&amp;amp;&lt;/span&gt; &lt;span style=&quot;color: rgb(156, 220, 254);&quot;&gt;ev&lt;/span&gt; ) &lt;span style=&quot;color: rgb(86, 156, 214);&quot;&gt;override&lt;/span&gt;;&lt;br&gt;&lt;/div&gt;&lt;div&gt;&lt;span style=&quot;color: #569cd6;&quot;&gt;private:&lt;/span&gt;&lt;/div&gt;&lt;div&gt;&amp;nbsp; &amp;nbsp; &amp;nbsp; &amp;nbsp; &lt;span style=&quot;color: rgb(86, 156, 214);&quot;&gt;struct&lt;/span&gt; &lt;span style=&quot;color: rgb(78, 201, 176);&quot;&gt;Particle&lt;/span&gt; {&lt;br&gt;&lt;/div&gt;&lt;div&gt;&amp;nbsp; &amp;nbsp; &amp;nbsp; &amp;nbsp; &amp;nbsp; &amp;nbsp; &lt;span style=&quot;color: #4ec9b0;&quot;&gt;std&lt;/span&gt;::&lt;span style=&quot;color: #4ec9b0;&quot;&gt;string&lt;/span&gt; &lt;span style=&quot;color: #9cdcfe;&quot;&gt;name&lt;/span&gt;;&lt;span style=&quot;color: #6a9955;&quot;&gt; &amp;nbsp; // element name&lt;/span&gt;&lt;/div&gt;&lt;div&gt;&amp;nbsp; &amp;nbsp; &amp;nbsp; &amp;nbsp; &amp;nbsp; &amp;nbsp; &lt;span style=&quot;color: #4ec9b0;&quot;&gt;MassMean&lt;/span&gt;&lt;span style=&quot;color: #569cd6;&quot;&gt;*&lt;/span&gt; &amp;nbsp; &lt;span style=&quot;color: #9cdcfe;&quot;&gt;pMean&lt;/span&gt;;&lt;span style=&quot;color: #6a9955;&quot;&gt; &amp;nbsp;// statistic object&lt;/span&gt;&lt;/div&gt;&lt;div&gt;&amp;nbsp; &amp;nbsp; &amp;nbsp; &amp;nbsp; &amp;nbsp; &amp;nbsp; &lt;span style=&quot;color: #4ec9b0;&quot;&gt;TH1F&lt;/span&gt;&lt;span style=&quot;color: #569cd6;&quot;&gt;*&lt;/span&gt; &amp;nbsp; &amp;nbsp; &amp;nbsp; &lt;span style=&quot;color: #9cdcfe;&quot;&gt;hMean&lt;/span&gt;;&lt;span style=&quot;color: #6a9955;&quot;&gt; &amp;nbsp;// graph&lt;/span&gt;&lt;/div&gt;&lt;div&gt;&amp;nbsp; &amp;nbsp; &amp;nbsp; &amp;nbsp; };&lt;/div&gt;&lt;br&gt;&lt;div&gt;&amp;nbsp; &amp;nbsp; &amp;nbsp; &amp;nbsp; &lt;span style=&quot;color: rgb(78, 201, 176);&quot;&gt;std&lt;/span&gt;::&lt;span style=&quot;color: rgb(78, 201, 176);&quot;&gt;vector&lt;/span&gt;&amp;lt;&lt;span style=&quot;color: rgb(78, 201, 176);&quot;&gt;Particle&lt;/span&gt;&lt;span style=&quot;color: rgb(212, 212, 212);&quot;&gt;*&lt;/span&gt;&amp;gt; &lt;span style=&quot;color: rgb(156, 220, 254);&quot;&gt;pList&lt;/span&gt;;&lt;/div&gt;&lt;div&gt;&amp;nbsp; &amp;nbsp; &amp;nbsp; &amp;nbsp; &lt;span style=&quot;color: rgb(86, 156, 214);&quot;&gt;void&lt;/span&gt; &lt;span style=&quot;color: rgb(220, 220, 170);&quot;&gt;pCreate&lt;/span&gt; (&lt;span style=&quot;color: rgb(86, 156, 214);&quot;&gt;const&lt;/span&gt; &lt;span style=&quot;color: rgb(78, 201, 176);&quot;&gt;std&lt;/span&gt;::&lt;span style=&quot;color: rgb(78, 201, 176);&quot;&gt;string&lt;/span&gt;&lt;span style=&quot;color: rgb(86, 156, 214);&quot;&gt;&amp;amp;&lt;/span&gt; &lt;span style=&quot;color: rgb(156, 220, 254);&quot;&gt;name&lt;/span&gt;, &lt;span style=&quot;color: rgb(86, 156, 214);&quot;&gt;double&lt;/span&gt; &lt;span style=&quot;color: rgb(156, 220, 254);&quot;&gt;min_mass&lt;/span&gt;, &lt;span style=&quot;color: rgb(86, 156, 214);&quot;&gt;double&lt;/span&gt; &lt;span style=&quot;color: rgb(156, 220, 254);&quot;&gt;max_mass&lt;/span&gt;);&lt;br&gt;&lt;/div&gt;&lt;div&gt;&lt;/div&gt;&lt;/div&gt;" style="text;strokeColor=none;fillColor=none;align=left;verticalAlign=top;spacingLeft=4;spacingRight=4;overflow=hidden;rotatable=1;points=[[0,0.5],[1,0.5]];portConstraint=eastwest;whiteSpace=wrap;html=1;movable=1;resizable=1;deletable=1;editable=1;locked=0;connectable=1;" vertex="1" parent="n8yumlOVsB6OTQwj1mip-35">
          <mxGeometry y="26" width="640" height="354" as="geometry" />
        </mxCell>
        <mxCell id="n8yumlOVsB6OTQwj1mip-43" value="&lt;b&gt;MassMean&lt;/b&gt;" style="swimlane;fontStyle=0;childLayout=stackLayout;horizontal=1;startSize=26;fillColor=none;horizontalStack=0;resizeParent=1;resizeParentMax=0;resizeLast=0;collapsible=1;marginBottom=0;whiteSpace=wrap;html=1;" vertex="1" parent="1">
          <mxGeometry x="-420" y="2770" width="300" height="440" as="geometry" />
        </mxCell>
        <mxCell id="n8yumlOVsB6OTQwj1mip-44" value="&lt;div style=&quot;color: rgb(204, 204, 204); background-color: rgb(31, 31, 31); font-family: Consolas, &amp;quot;Courier New&amp;quot;, monospace; font-size: 14px; line-height: 19px; white-space: pre;&quot;&gt;&lt;div&gt;&lt;span style=&quot;color: #569cd6;&quot;&gt;public:&lt;/span&gt;&lt;/div&gt;&lt;div&gt;&amp;nbsp; &lt;span style=&quot;color: rgb(220, 220, 170);&quot;&gt;MassMean&lt;/span&gt;( &lt;span style=&quot;color: rgb(86, 156, 214);&quot;&gt;double&lt;/span&gt; &lt;span style=&quot;color: rgb(156, 220, 254);&quot;&gt;min&lt;/span&gt;, &lt;span style=&quot;color: rgb(86, 156, 214);&quot;&gt;double&lt;/span&gt; &lt;span style=&quot;color: rgb(156, 220, 254);&quot;&gt;max&lt;/span&gt; );&lt;br&gt;&lt;/div&gt;&lt;div&gt;&amp;nbsp; &lt;span style=&quot;color: rgb(220, 220, 170);&quot;&gt;~MassMean&lt;/span&gt;();&lt;br&gt;&lt;/div&gt;&lt;br&gt;&lt;div&gt;&amp;nbsp; &lt;span style=&quot;color: #569cd6;&quot;&gt;bool&lt;/span&gt; &lt;span style=&quot;color: #dcdcaa;&quot;&gt;add&lt;/span&gt;( &lt;span style=&quot;color: #569cd6;&quot;&gt;const&lt;/span&gt; &lt;span style=&quot;color: #4ec9b0;&quot;&gt;Event&lt;/span&gt;&lt;span style=&quot;color: #569cd6;&quot;&gt;&amp;amp;&lt;/span&gt; &lt;span style=&quot;color: #9cdcfe;&quot;&gt;ev&lt;/span&gt; );&lt;span style=&quot;color: #6a9955;&quot;&gt; &amp;nbsp; &amp;nbsp; &amp;nbsp;&lt;/span&gt;&lt;/div&gt;&lt;div&gt;&amp;nbsp; &lt;span style=&quot;color: #569cd6;&quot;&gt;void&lt;/span&gt; &lt;span style=&quot;color: #dcdcaa;&quot;&gt;compute&lt;/span&gt;();&lt;span style=&quot;color: #6a9955;&quot;&gt; &amp;nbsp; &amp;nbsp; &amp;nbsp; &amp;nbsp; &amp;nbsp; &amp;nbsp; &amp;nbsp; &amp;nbsp;&lt;/span&gt;&lt;/div&gt;&lt;div&gt;&amp;nbsp; &lt;span style=&quot;color: #569cd6;&quot;&gt;unsigned&lt;/span&gt; &lt;span style=&quot;color: #569cd6;&quot;&gt;int&lt;/span&gt; &lt;span style=&quot;color: #dcdcaa;&quot;&gt;get_nAcc&lt;/span&gt;() &lt;span style=&quot;color: #569cd6;&quot;&gt;const&lt;/span&gt;;&lt;span style=&quot;color: #6a9955;&quot;&gt; &amp;nbsp; &amp;nbsp;&lt;/span&gt;&lt;/div&gt;&lt;div&gt;&amp;nbsp; &lt;span style=&quot;color: #569cd6;&quot;&gt;double&lt;/span&gt; &lt;span style=&quot;color: #dcdcaa;&quot;&gt;get_mean&lt;/span&gt;() &lt;span style=&quot;color: #569cd6;&quot;&gt;const&lt;/span&gt;;&lt;span style=&quot;color: #6a9955;&quot;&gt; &amp;nbsp; &amp;nbsp; &amp;nbsp; &amp;nbsp; &amp;nbsp;&lt;/span&gt;&lt;/div&gt;&lt;div&gt;&amp;nbsp; &lt;span style=&quot;color: #569cd6;&quot;&gt;double&lt;/span&gt; &lt;span style=&quot;color: #dcdcaa;&quot;&gt;get_rms&lt;/span&gt;() &lt;span style=&quot;color: #569cd6;&quot;&gt;const&lt;/span&gt;;&lt;span style=&quot;color: #6a9955;&quot;&gt; &amp;nbsp; &amp;nbsp; &amp;nbsp; &amp;nbsp; &amp;nbsp; &lt;/span&gt;&lt;/div&gt;&lt;div&gt;&amp;nbsp; &lt;span style=&quot;color: rgb(86, 156, 214);&quot;&gt;double&lt;/span&gt; &lt;span style=&quot;color: rgb(220, 220, 170);&quot;&gt;get_min&lt;/span&gt;() &lt;span style=&quot;color: rgb(86, 156, 214);&quot;&gt;const&lt;/span&gt;;&lt;/div&gt;&lt;br&gt;&lt;div&gt;&amp;nbsp;&lt;span style=&quot;color: #569cd6;&quot;&gt;private:&lt;/span&gt;&lt;/div&gt;&lt;br&gt;&lt;div&gt;&amp;nbsp; &lt;span style=&quot;color: #569cd6;&quot;&gt;double&lt;/span&gt; &lt;span style=&quot;color: #9cdcfe;&quot;&gt;min_mass&lt;/span&gt;;&lt;span style=&quot;color: #6a9955;&quot;&gt; &lt;/span&gt;&lt;/div&gt;&lt;div&gt;&amp;nbsp; &lt;span style=&quot;color: #569cd6;&quot;&gt;double&lt;/span&gt; &lt;span style=&quot;color: #9cdcfe;&quot;&gt;max_mass&lt;/span&gt;;&lt;span style=&quot;color: #6a9955;&quot;&gt; &lt;/span&gt;&lt;/div&gt;&lt;div&gt;&amp;nbsp; &lt;span style=&quot;color: #569cd6;&quot;&gt;unsigned&lt;/span&gt; &lt;span style=&quot;color: #569cd6;&quot;&gt;int&lt;/span&gt; &lt;span style=&quot;color: #9cdcfe;&quot;&gt;nAcc&lt;/span&gt;;&lt;/div&gt;&lt;div&gt;&amp;nbsp; &lt;span style=&quot;color: #569cd6;&quot;&gt;double&lt;/span&gt; &lt;span style=&quot;color: #9cdcfe;&quot;&gt;sum_mass&lt;/span&gt;;&lt;span style=&quot;color: #6a9955;&quot;&gt; &lt;/span&gt;&lt;/div&gt;&lt;div&gt;&amp;nbsp; &lt;span style=&quot;color: #569cd6;&quot;&gt;double&lt;/span&gt; &lt;span style=&quot;color: #9cdcfe;&quot;&gt;sum_sqr&lt;/span&gt;;&lt;span style=&quot;color: #6a9955;&quot;&gt; &lt;/span&gt;&lt;/div&gt;&lt;br&gt;&lt;div&gt;&amp;nbsp; &lt;span style=&quot;color: #569cd6;&quot;&gt;double&lt;/span&gt; &lt;span style=&quot;color: #9cdcfe;&quot;&gt;mean&lt;/span&gt;;&lt;span style=&quot;color: #6a9955;&quot;&gt; &lt;/span&gt;&lt;/div&gt;&lt;div&gt;&amp;nbsp; &lt;span style=&quot;color: rgb(86, 156, 214);&quot;&gt;double&lt;/span&gt; &lt;span style=&quot;color: rgb(156, 220, 254);&quot;&gt;rms&lt;/span&gt;;&lt;/div&gt;&lt;br&gt;&lt;/div&gt;" style="text;strokeColor=none;fillColor=none;align=left;verticalAlign=top;spacingLeft=4;spacingRight=4;overflow=hidden;rotatable=0;points=[[0,0.5],[1,0.5]];portConstraint=eastwest;whiteSpace=wrap;html=1;" vertex="1" parent="n8yumlOVsB6OTQwj1mip-43">
          <mxGeometry y="26" width="300" height="414" as="geometry" />
        </mxCell>
        <mxCell id="n8yumlOVsB6OTQwj1mip-47" value="MassMean" style="html=1;whiteSpace=wrap;" vertex="1" parent="1">
          <mxGeometry x="-260" y="570" width="110" height="50" as="geometry" />
        </mxCell>
        <mxCell id="n8yumlOVsB6OTQwj1mip-55" value="" style="edgeStyle=orthogonalEdgeStyle;rounded=0;orthogonalLoop=1;jettySize=auto;html=1;" edge="1" parent="1" source="n8yumlOVsB6OTQwj1mip-48" target="n8yumlOVsB6OTQwj1mip-49">
          <mxGeometry relative="1" as="geometry" />
        </mxCell>
        <mxCell id="n8yumlOVsB6OTQwj1mip-48" value="EventDump" style="html=1;whiteSpace=wrap;" vertex="1" parent="1">
          <mxGeometry x="-554" y="620" width="120" height="50" as="geometry" />
        </mxCell>
        <mxCell id="n8yumlOVsB6OTQwj1mip-49" value="AnalysisSteering" style="html=1;whiteSpace=wrap;" vertex="1" parent="1">
          <mxGeometry x="-630" y="480" width="120" height="50" as="geometry" />
        </mxCell>
        <mxCell id="n8yumlOVsB6OTQwj1mip-56" value="" style="edgeStyle=orthogonalEdgeStyle;rounded=0;orthogonalLoop=1;jettySize=auto;html=1;" edge="1" parent="1" source="n8yumlOVsB6OTQwj1mip-52" target="n8yumlOVsB6OTQwj1mip-49">
          <mxGeometry relative="1" as="geometry" />
        </mxCell>
        <mxCell id="n8yumlOVsB6OTQwj1mip-52" value="ParticleMass" style="html=1;whiteSpace=wrap;" vertex="1" parent="1">
          <mxGeometry x="-710" y="620" width="120" height="50" as="geometry" />
        </mxCell>
        <mxCell id="n8yumlOVsB6OTQwj1mip-57" value="&lt;b&gt;Event&lt;/b&gt;" style="swimlane;fontStyle=0;childLayout=stackLayout;horizontal=1;startSize=26;fillColor=none;horizontalStack=0;resizeParent=1;resizeParentMax=0;resizeLast=0;collapsible=1;marginBottom=0;whiteSpace=wrap;html=1;" vertex="1" parent="1">
          <mxGeometry x="-500" y="2280" width="460" height="450" as="geometry" />
        </mxCell>
        <mxCell id="n8yumlOVsB6OTQwj1mip-58" value="&lt;div style=&quot;color: rgb(204, 204, 204); background-color: rgb(31, 31, 31); font-family: Consolas, &amp;quot;Courier New&amp;quot;, monospace; font-size: 14px; line-height: 19px; white-space: pre;&quot;&gt;&lt;div&gt;&lt;span style=&quot;color: #569cd6;&quot;&gt;public:&lt;/span&gt;&lt;/div&gt;&lt;br&gt;&lt;div&gt;&lt;span style=&quot;color: #6a9955;&quot;&gt;&amp;nbsp; &lt;/span&gt;&lt;span style=&quot;color: rgb(220, 220, 170);&quot;&gt;Event&lt;/span&gt;( &lt;span style=&quot;color: rgb(86, 156, 214);&quot;&gt;int&lt;/span&gt; &lt;span style=&quot;color: rgb(156, 220, 254);&quot;&gt;n&lt;/span&gt;, &lt;span style=&quot;color: rgb(86, 156, 214);&quot;&gt;double&lt;/span&gt; &lt;span style=&quot;color: rgb(156, 220, 254);&quot;&gt;x&lt;/span&gt;, &lt;span style=&quot;color: rgb(86, 156, 214);&quot;&gt;double&lt;/span&gt; &lt;span style=&quot;color: rgb(156, 220, 254);&quot;&gt;y&lt;/span&gt;, &lt;span style=&quot;color: rgb(86, 156, 214);&quot;&gt;double&lt;/span&gt; &lt;span style=&quot;color: rgb(156, 220, 254);&quot;&gt;z&lt;/span&gt; );&lt;/div&gt;&lt;div&gt;&lt;span style=&quot;color: #6a9955;&quot;&gt;&amp;nbsp; &lt;/span&gt;&lt;span style=&quot;color: rgb(220, 220, 170);&quot;&gt;~Event&lt;/span&gt;();&lt;/div&gt;&lt;div&gt;&lt;span style=&quot;color: #569cd6;&quot;&gt;  &lt;/span&gt;&lt;span style=&quot;color: rgb(86, 156, 214);&quot;&gt;struct&lt;/span&gt; &lt;span style=&quot;color: rgb(78, 201, 176);&quot;&gt;Particle&lt;/span&gt; {&lt;/div&gt;&lt;div&gt;&amp;nbsp; &amp;nbsp; &lt;span style=&quot;color: #569cd6;&quot;&gt;int&lt;/span&gt; &lt;span style=&quot;color: #9cdcfe;&quot;&gt;chg&lt;/span&gt;;&lt;/div&gt;&lt;div&gt;&amp;nbsp; &amp;nbsp; &lt;span style=&quot;color: #569cd6;&quot;&gt;double&lt;/span&gt; &lt;span style=&quot;color: #9cdcfe;&quot;&gt;px&lt;/span&gt;, &lt;span style=&quot;color: #9cdcfe;&quot;&gt;py&lt;/span&gt;, &lt;span style=&quot;color: #9cdcfe;&quot;&gt;pz&lt;/span&gt;;&lt;/div&gt;&lt;div&gt;&amp;nbsp; };&lt;/div&gt;&lt;div&gt;&amp;nbsp; &lt;span style=&quot;color: #569cd6;&quot;&gt;typedef&lt;/span&gt; &lt;span style=&quot;color: #569cd6;&quot;&gt;const&lt;/span&gt; &lt;span style=&quot;color: #4ec9b0;&quot;&gt;Particle&lt;/span&gt;&lt;span style=&quot;color: #d4d4d4;&quot;&gt;*&lt;/span&gt; &lt;span style=&quot;color: #4ec9b0;&quot;&gt;part_ptr&lt;/span&gt;;&lt;/div&gt;&lt;br&gt;&lt;div&gt;&lt;span style=&quot;color: #6a9955;&quot;&gt;&amp;nbsp; &lt;/span&gt;&lt;span style=&quot;color: rgb(86, 156, 214);&quot;&gt;void&lt;/span&gt; &lt;span style=&quot;color: rgb(220, 220, 170);&quot;&gt;add&lt;/span&gt;( &lt;span style=&quot;color: rgb(86, 156, 214);&quot;&gt;int&lt;/span&gt; &lt;span style=&quot;color: rgb(156, 220, 254);&quot;&gt;charge&lt;/span&gt;, &lt;span style=&quot;color: rgb(86, 156, 214);&quot;&gt;double&lt;/span&gt; &lt;span style=&quot;color: rgb(156, 220, 254);&quot;&gt;px&lt;/span&gt;, &lt;span style=&quot;color: rgb(86, 156, 214);&quot;&gt;double&lt;/span&gt; &lt;span style=&quot;color: rgb(156, 220, 254);&quot;&gt;py&lt;/span&gt;, &lt;span style=&quot;color: rgb(86, 156, 214);&quot;&gt;double&lt;/span&gt; &lt;span style=&quot;color: rgb(156, 220, 254);&quot;&gt;pz&lt;/span&gt; );&lt;/div&gt;&lt;div&gt;&lt;span style=&quot;color: #6a9955;&quot;&gt;&amp;nbsp; &lt;/span&gt;&lt;span style=&quot;color: rgb(86, 156, 214);&quot;&gt;int&lt;/span&gt; &lt;span style=&quot;color: rgb(220, 220, 170);&quot;&gt;get_eventNumber&lt;/span&gt;() &lt;span style=&quot;color: rgb(86, 156, 214);&quot;&gt;const&lt;/span&gt;;&lt;/div&gt;&lt;div&gt;&lt;span style=&quot;color: #6a9955;&quot;&gt;&amp;nbsp; &lt;/span&gt;&lt;span style=&quot;color: rgb(86, 156, 214);&quot;&gt;double&lt;/span&gt; &lt;span style=&quot;color: rgb(220, 220, 170);&quot;&gt;get_x&lt;/span&gt;() &lt;span style=&quot;color: rgb(86, 156, 214);&quot;&gt;const&lt;/span&gt;;&lt;/div&gt;&lt;div&gt;&amp;nbsp; &lt;span style=&quot;color: #569cd6;&quot;&gt;double&lt;/span&gt; &lt;span style=&quot;color: #dcdcaa;&quot;&gt;get_y&lt;/span&gt;() &lt;span style=&quot;color: #569cd6;&quot;&gt;const&lt;/span&gt;;&lt;/div&gt;&lt;div&gt;&amp;nbsp; &lt;span style=&quot;color: #569cd6;&quot;&gt;double&lt;/span&gt; &lt;span style=&quot;color: #dcdcaa;&quot;&gt;get_z&lt;/span&gt;() &lt;span style=&quot;color: #569cd6;&quot;&gt;const&lt;/span&gt;;&lt;/div&gt;&lt;div&gt;&lt;span style=&quot;color: #6a9955;&quot;&gt;&amp;nbsp; &lt;/span&gt;&lt;span style=&quot;color: rgb(86, 156, 214);&quot;&gt;unsigned&lt;/span&gt; &lt;span style=&quot;color: rgb(86, 156, 214);&quot;&gt;int&lt;/span&gt; &lt;span style=&quot;color: rgb(220, 220, 170);&quot;&gt;get_nParticles&lt;/span&gt;() &lt;span style=&quot;color: rgb(86, 156, 214);&quot;&gt;const&lt;/span&gt;;&lt;/div&gt;&lt;div&gt;&lt;span style=&quot;color: #6a9955;&quot;&gt;&amp;nbsp; &lt;/span&gt;&lt;span style=&quot;color: rgb(78, 201, 176);&quot;&gt;part_ptr&lt;/span&gt; &lt;span style=&quot;color: rgb(220, 220, 170);&quot;&gt;get_particle&lt;/span&gt;( &lt;span style=&quot;color: rgb(86, 156, 214);&quot;&gt;unsigned&lt;/span&gt; &lt;span style=&quot;color: rgb(86, 156, 214);&quot;&gt;int&lt;/span&gt; &lt;span style=&quot;color: rgb(156, 220, 254);&quot;&gt;i&lt;/span&gt; ) &lt;span style=&quot;color: rgb(86, 156, 214);&quot;&gt;const&lt;/span&gt;;&lt;/div&gt;&lt;br&gt;&lt;div&gt;&amp;nbsp;&lt;span style=&quot;color: #569cd6;&quot;&gt;private:&lt;/span&gt;&lt;/div&gt;&lt;div&gt;&lt;span style=&quot;color: #6a9955;&quot;&gt;&amp;nbsp; &lt;/span&gt;&lt;span style=&quot;color: rgb(86, 156, 214);&quot;&gt;int&lt;/span&gt; &lt;span style=&quot;color: rgb(156, 220, 254);&quot;&gt;evNum&lt;/span&gt;;&lt;span style=&quot;color: rgb(106, 153, 85);&quot;&gt; &lt;/span&gt;&lt;/div&gt;&lt;div&gt;&amp;nbsp; &lt;span style=&quot;color: rgb(86, 156, 214);&quot;&gt;double&lt;/span&gt; &lt;span style=&quot;color: rgb(156, 220, 254);&quot;&gt;x&lt;/span&gt;,&lt;span style=&quot;color: rgb(156, 220, 254);&quot;&gt;y&lt;/span&gt;,&lt;span style=&quot;color: rgb(156, 220, 254);&quot;&gt;z&lt;/span&gt;;&lt;span style=&quot;color: rgb(106, 153, 85);&quot;&gt; &lt;/span&gt;&lt;/div&gt;&lt;div&gt;&lt;span style=&quot;color: #6a9955;&quot;&gt;&amp;nbsp; &lt;/span&gt;&lt;span style=&quot;color: rgb(78, 201, 176);&quot;&gt;std&lt;/span&gt;::&lt;span style=&quot;color: rgb(78, 201, 176);&quot;&gt;vector&lt;/span&gt;&amp;lt;&lt;span style=&quot;color: rgb(78, 201, 176);&quot;&gt;Particle&lt;/span&gt;&lt;span style=&quot;color: rgb(212, 212, 212);&quot;&gt;*&lt;/span&gt;&amp;gt; &lt;span style=&quot;color: rgb(156, 220, 254);&quot;&gt;particles&lt;/span&gt;; &lt;/div&gt;&lt;br&gt;&lt;/div&gt;" style="text;strokeColor=none;fillColor=none;align=left;verticalAlign=top;spacingLeft=4;spacingRight=4;overflow=hidden;rotatable=0;points=[[0,0.5],[1,0.5]];portConstraint=eastwest;whiteSpace=wrap;html=1;" vertex="1" parent="n8yumlOVsB6OTQwj1mip-57">
          <mxGeometry y="26" width="460" height="424" as="geometry" />
        </mxCell>
        <mxCell id="n8yumlOVsB6OTQwj1mip-61" value="&lt;b&gt;AnalysisInfo&lt;/b&gt;" style="swimlane;fontStyle=0;childLayout=stackLayout;horizontal=1;startSize=26;fillColor=none;horizontalStack=0;resizeParent=1;resizeParentMax=0;resizeLast=0;collapsible=1;marginBottom=0;whiteSpace=wrap;html=1;" vertex="1" parent="1">
          <mxGeometry x="-513" y="1890" width="470" height="350" as="geometry" />
        </mxCell>
        <mxCell id="n8yumlOVsB6OTQwj1mip-62" value="&lt;div style=&quot;color: rgb(204, 204, 204); background-color: rgb(31, 31, 31); font-family: Consolas, &amp;quot;Courier New&amp;quot;, monospace; font-size: 14px; line-height: 19px; white-space: pre;&quot;&gt;&lt;div&gt;&lt;span style=&quot;color: #569cd6;&quot;&gt;public:&lt;/span&gt;&lt;/div&gt;&lt;br&gt;&lt;div&gt;&amp;nbsp; &lt;span style=&quot;color: #dcdcaa;&quot;&gt;AnalysisInfo&lt;/span&gt;( &lt;span style=&quot;color: #569cd6;&quot;&gt;int&lt;/span&gt; &lt;span style=&quot;color: #9cdcfe;&quot;&gt;argc&lt;/span&gt;, &lt;span style=&quot;color: #569cd6;&quot;&gt;char*&lt;/span&gt; &lt;span style=&quot;color: #9cdcfe;&quot;&gt;argv&lt;/span&gt;[] );&lt;/div&gt;&lt;div&gt;&lt;span style=&quot;color: #6a9955;&quot;&gt;&amp;nbsp; &lt;/span&gt;&lt;span style=&quot;color: rgb(220, 220, 170);&quot;&gt;AnalysisInfo&lt;/span&gt; &amp;nbsp; &amp;nbsp; &amp;nbsp; &amp;nbsp; &amp;nbsp; ( &lt;span style=&quot;color: rgb(86, 156, 214);&quot;&gt;const&lt;/span&gt; &lt;span style=&quot;color: rgb(78, 201, 176);&quot;&gt;AnalysisInfo&lt;/span&gt;&lt;span style=&quot;color: rgb(212, 212, 212);&quot;&gt;&amp;amp;&lt;/span&gt; &lt;span style=&quot;color: rgb(156, 220, 254);&quot;&gt;x&lt;/span&gt; ) &lt;span style=&quot;color: rgb(212, 212, 212);&quot;&gt;=&lt;/span&gt; &lt;span style=&quot;color: rgb(197, 134, 192);&quot;&gt;delete&lt;/span&gt;;&lt;/div&gt;&lt;div&gt;&amp;nbsp; &lt;span style=&quot;color: #4ec9b0;&quot;&gt;AnalysisInfo&lt;/span&gt;&lt;span style=&quot;color: #569cd6;&quot;&gt;&amp;amp;&lt;/span&gt; &lt;span style=&quot;color: #dcdcaa;&quot;&gt;operator=&lt;/span&gt;( &lt;span style=&quot;color: #569cd6;&quot;&gt;const&lt;/span&gt; &lt;span style=&quot;color: #4ec9b0;&quot;&gt;AnalysisInfo&lt;/span&gt;&lt;span style=&quot;color: #569cd6;&quot;&gt;&amp;amp;&lt;/span&gt; &lt;span style=&quot;color: #9cdcfe;&quot;&gt;x&lt;/span&gt; ) &lt;span style=&quot;color: #d4d4d4;&quot;&gt;=&lt;/span&gt; &lt;span style=&quot;color: #569cd6;&quot;&gt;delete&lt;/span&gt;;&lt;/div&gt;&lt;div&gt;&amp;nbsp; &lt;span style=&quot;color: #dcdcaa;&quot;&gt;~AnalysisInfo&lt;/span&gt;();&lt;/div&gt;&lt;br&gt;&lt;div&gt;&amp;nbsp; &lt;span style=&quot;color: #569cd6;&quot;&gt;const&lt;/span&gt; &lt;span style=&quot;color: #4ec9b0;&quot;&gt;std&lt;/span&gt;::&lt;span style=&quot;color: #4ec9b0;&quot;&gt;vector&lt;/span&gt;&amp;lt;&lt;span style=&quot;color: #4ec9b0;&quot;&gt;std&lt;/span&gt;::&lt;span style=&quot;color: #4ec9b0;&quot;&gt;string&lt;/span&gt;&amp;gt;&lt;span style=&quot;color: #569cd6;&quot;&gt;&amp;amp;&lt;/span&gt; &lt;span style=&quot;color: #dcdcaa;&quot;&gt;argList&lt;/span&gt;() &lt;span style=&quot;color: #569cd6;&quot;&gt;const&lt;/span&gt;;&lt;/div&gt;&lt;div&gt;&amp;nbsp; &lt;span style=&quot;color: rgb(86, 156, 214);&quot;&gt;const&lt;/span&gt; &lt;span style=&quot;color: rgb(78, 201, 176);&quot;&gt;std&lt;/span&gt;::&lt;span style=&quot;color: rgb(78, 201, 176);&quot;&gt;string&lt;/span&gt;&lt;span style=&quot;color: rgb(86, 156, 214);&quot;&gt;&amp;amp;&lt;/span&gt; &lt;span style=&quot;color: rgb(220, 220, 170);&quot;&gt;value&lt;/span&gt;( &lt;span style=&quot;color: rgb(86, 156, 214);&quot;&gt;const&lt;/span&gt; &lt;span style=&quot;color: rgb(78, 201, 176);&quot;&gt;std&lt;/span&gt;::&lt;span style=&quot;color: rgb(78, 201, 176);&quot;&gt;string&lt;/span&gt;&lt;span style=&quot;color: rgb(86, 156, 214);&quot;&gt;&amp;amp;&lt;/span&gt; &lt;span style=&quot;color: rgb(156, 220, 254);&quot;&gt;key&lt;/span&gt; ) &lt;span style=&quot;color: rgb(86, 156, 214);&quot;&gt;const&lt;/span&gt;;&lt;br&gt;&lt;/div&gt;&lt;div&gt;&amp;nbsp; &lt;span style=&quot;color: rgb(86, 156, 214);&quot;&gt;bool&lt;/span&gt; &lt;span style=&quot;color: rgb(220, 220, 170);&quot;&gt;contains&lt;/span&gt;( &lt;span style=&quot;color: rgb(86, 156, 214);&quot;&gt;const&lt;/span&gt; &lt;span style=&quot;color: rgb(78, 201, 176);&quot;&gt;std&lt;/span&gt;::&lt;span style=&quot;color: rgb(78, 201, 176);&quot;&gt;string&lt;/span&gt;&lt;span style=&quot;color: rgb(86, 156, 214);&quot;&gt;&amp;amp;&lt;/span&gt; &lt;span style=&quot;color: rgb(156, 220, 254);&quot;&gt;key&lt;/span&gt; ) &lt;span style=&quot;color: rgb(86, 156, 214);&quot;&gt;const&lt;/span&gt;;&lt;br&gt;&lt;/div&gt;&lt;br&gt;&lt;div&gt;&amp;nbsp;&lt;span style=&quot;color: #569cd6;&quot;&gt;private:&lt;/span&gt;&lt;/div&gt;&lt;br&gt;&lt;div&gt;&amp;nbsp; &lt;span style=&quot;color: rgb(78, 201, 176);&quot;&gt;std&lt;/span&gt;::&lt;span style=&quot;color: rgb(78, 201, 176);&quot;&gt;vector&lt;/span&gt;&amp;lt;&lt;span style=&quot;color: rgb(78, 201, 176);&quot;&gt;std&lt;/span&gt;::&lt;span style=&quot;color: rgb(78, 201, 176);&quot;&gt;string&lt;/span&gt;&amp;gt; &lt;span style=&quot;color: rgb(156, 220, 254);&quot;&gt;args&lt;/span&gt;;&lt;br&gt;&lt;/div&gt;&lt;div&gt;&amp;nbsp; &lt;span style=&quot;color: rgb(86, 156, 214);&quot;&gt;static&lt;/span&gt; &lt;span style=&quot;color: rgb(78, 201, 176);&quot;&gt;std&lt;/span&gt;::&lt;span style=&quot;color: rgb(78, 201, 176);&quot;&gt;string&lt;/span&gt; &lt;span style=&quot;color: rgb(156, 220, 254);&quot;&gt;defaultString&lt;/span&gt;;&lt;br&gt;&lt;/div&gt;&lt;br&gt;&lt;/div&gt;" style="text;strokeColor=none;fillColor=none;align=left;verticalAlign=top;spacingLeft=4;spacingRight=4;overflow=hidden;rotatable=0;points=[[0,0.5],[1,0.5]];portConstraint=eastwest;whiteSpace=wrap;html=1;" vertex="1" parent="n8yumlOVsB6OTQwj1mip-61">
          <mxGeometry y="26" width="470" height="324" as="geometry" />
        </mxCell>
        <mxCell id="n8yumlOVsB6OTQwj1mip-65" value="&lt;b&gt;EventDump&lt;/b&gt;" style="swimlane;fontStyle=0;childLayout=stackLayout;horizontal=1;startSize=26;fillColor=none;horizontalStack=0;resizeParent=1;resizeParentMax=0;resizeLast=0;collapsible=1;marginBottom=0;whiteSpace=wrap;html=1;" vertex="1" parent="1">
          <mxGeometry x="-1320" y="3070" width="430" height="260" as="geometry" />
        </mxCell>
        <mxCell id="n8yumlOVsB6OTQwj1mip-68" value="&lt;br&gt;&lt;div style=&quot;color: #cccccc;background-color: #1f1f1f;font-family: Consolas, &#39;Courier New&#39;, monospace;font-weight: normal;font-size: 14px;line-height: 19px;white-space: pre;&quot;&gt;&lt;div&gt;&lt;span style=&quot;color: #569cd6;&quot;&gt;public:&lt;/span&gt;&lt;/div&gt;&lt;br&gt;&lt;div&gt;&lt;span style=&quot;color: #cccccc;&quot;&gt;&amp;nbsp; &lt;/span&gt;&lt;span style=&quot;color: #dcdcaa;&quot;&gt;EventDump&lt;/span&gt;&lt;span style=&quot;color: #cccccc;&quot;&gt;(&lt;/span&gt;&lt;span style=&quot;color: #569cd6;&quot;&gt;const&lt;/span&gt;&lt;span style=&quot;color: #cccccc;&quot;&gt; &lt;/span&gt;&lt;span style=&quot;color: #4ec9b0;&quot;&gt;AnalysisInfo&lt;/span&gt;&lt;span style=&quot;color: #569cd6;&quot;&gt;*&lt;/span&gt;&lt;span style=&quot;color: #cccccc;&quot;&gt; &lt;/span&gt;&lt;span style=&quot;color: #9cdcfe;&quot;&gt;info&lt;/span&gt;&lt;span style=&quot;color: #cccccc;&quot;&gt;);&lt;/span&gt;&lt;/div&gt;&lt;div&gt;&amp;nbsp; &lt;span style=&quot;color: rgb(220, 220, 170);&quot;&gt;EventDump&lt;/span&gt; &amp;nbsp; &amp;nbsp; &amp;nbsp; &amp;nbsp; &amp;nbsp; ( &lt;span style=&quot;color: rgb(86, 156, 214);&quot;&gt;const&lt;/span&gt; &lt;span style=&quot;color: rgb(78, 201, 176);&quot;&gt;EventDump&lt;/span&gt;&lt;span style=&quot;color: rgb(212, 212, 212);&quot;&gt;&amp;amp;&lt;/span&gt; &lt;span style=&quot;color: rgb(156, 220, 254);&quot;&gt;x&lt;/span&gt; ) &lt;span style=&quot;color: rgb(212, 212, 212);&quot;&gt;=&lt;/span&gt; &lt;span style=&quot;color: rgb(197, 134, 192);&quot;&gt;delete&lt;/span&gt;;&lt;br&gt;&lt;/div&gt;&lt;div&gt;&lt;span style=&quot;color: #cccccc;&quot;&gt;&amp;nbsp; &lt;/span&gt;&lt;span style=&quot;color: #4ec9b0;&quot;&gt;EventDump&lt;/span&gt;&lt;span style=&quot;color: #569cd6;&quot;&gt;&amp;amp;&lt;/span&gt;&lt;span style=&quot;color: #cccccc;&quot;&gt; &lt;/span&gt;&lt;span style=&quot;color: #dcdcaa;&quot;&gt;operator=&lt;/span&gt;&lt;span style=&quot;color: #cccccc;&quot;&gt;( &lt;/span&gt;&lt;span style=&quot;color: #569cd6;&quot;&gt;const&lt;/span&gt;&lt;span style=&quot;color: #cccccc;&quot;&gt; &lt;/span&gt;&lt;span style=&quot;color: #4ec9b0;&quot;&gt;EventDump&lt;/span&gt;&lt;span style=&quot;color: #569cd6;&quot;&gt;&amp;amp;&lt;/span&gt;&lt;span style=&quot;color: #cccccc;&quot;&gt; &lt;/span&gt;&lt;span style=&quot;color: #9cdcfe;&quot;&gt;x&lt;/span&gt;&lt;span style=&quot;color: #cccccc;&quot;&gt; ) &lt;/span&gt;&lt;span style=&quot;color: #d4d4d4;&quot;&gt;=&lt;/span&gt;&lt;span style=&quot;color: #cccccc;&quot;&gt; &lt;/span&gt;&lt;span style=&quot;color: #569cd6;&quot;&gt;delete&lt;/span&gt;&lt;span style=&quot;color: #cccccc;&quot;&gt;;&lt;/span&gt;&lt;/div&gt;&lt;br&gt;&lt;div&gt;&lt;span style=&quot;color: #cccccc;&quot;&gt;&amp;nbsp; &lt;/span&gt;&lt;span style=&quot;color: #dcdcaa;&quot;&gt;~EventDump&lt;/span&gt;&lt;span style=&quot;color: #cccccc;&quot;&gt;() &lt;/span&gt;&lt;span style=&quot;color: #569cd6;&quot;&gt;override&lt;/span&gt;&lt;span style=&quot;color: #cccccc;&quot;&gt;;&lt;/span&gt;&lt;/div&gt;&lt;div&gt;&lt;span style=&quot;color: #cccccc;&quot;&gt;&amp;nbsp; &lt;/span&gt;&lt;span style=&quot;color: #569cd6;&quot;&gt;void&lt;/span&gt;&lt;span style=&quot;color: #cccccc;&quot;&gt; &lt;/span&gt;&lt;span style=&quot;color: #dcdcaa;&quot;&gt;beginJob&lt;/span&gt;&lt;span style=&quot;color: #cccccc;&quot;&gt;() &lt;/span&gt;&lt;span style=&quot;color: #569cd6;&quot;&gt;override&lt;/span&gt;&lt;span style=&quot;color: #cccccc;&quot;&gt;;&lt;/span&gt;&lt;/div&gt;&lt;div&gt;&amp;nbsp; &lt;span style=&quot;color: rgb(86, 156, 214);&quot;&gt;void&lt;/span&gt; &amp;nbsp; &lt;span style=&quot;color: rgb(220, 220, 170);&quot;&gt;endJob&lt;/span&gt;() &lt;span style=&quot;color: rgb(86, 156, 214);&quot;&gt;override&lt;/span&gt;;&lt;br&gt;&lt;/div&gt;&lt;div&gt;&amp;nbsp; &lt;span style=&quot;color: rgb(86, 156, 214);&quot;&gt;void&lt;/span&gt; &lt;span style=&quot;color: rgb(220, 220, 170);&quot;&gt;update&lt;/span&gt;( &lt;span style=&quot;color: rgb(86, 156, 214);&quot;&gt;const&lt;/span&gt; &lt;span style=&quot;color: rgb(78, 201, 176);&quot;&gt;Event&lt;/span&gt;&lt;span style=&quot;color: rgb(86, 156, 214);&quot;&gt;&amp;amp;&lt;/span&gt; &lt;span style=&quot;color: rgb(156, 220, 254);&quot;&gt;ev&lt;/span&gt; ) &lt;span style=&quot;color: rgb(86, 156, 214);&quot;&gt;override&lt;/span&gt;;&lt;br&gt;&lt;/div&gt;&lt;br&gt;&lt;/div&gt;&lt;div&gt;&lt;br/&gt;&lt;/div&gt;" style="text;strokeColor=none;fillColor=none;align=left;verticalAlign=top;spacingLeft=4;spacingRight=4;overflow=hidden;rotatable=0;points=[[0,0.5],[1,0.5]];portConstraint=eastwest;whiteSpace=wrap;html=1;" vertex="1" parent="n8yumlOVsB6OTQwj1mip-65">
          <mxGeometry y="26" width="430" height="234" as="geometry" />
        </mxCell>
        <mxCell id="n8yumlOVsB6OTQwj1mip-69" value="&lt;b&gt;AnalysisSteering&lt;/b&gt;" style="swimlane;fontStyle=0;childLayout=stackLayout;horizontal=1;startSize=26;fillColor=none;horizontalStack=0;resizeParent=1;resizeParentMax=0;resizeLast=0;collapsible=1;marginBottom=0;whiteSpace=wrap;html=1;" vertex="1" parent="1">
          <mxGeometry x="-1590" y="2680" width="530" height="270" as="geometry" />
        </mxCell>
        <mxCell id="n8yumlOVsB6OTQwj1mip-70" value="&lt;div style=&quot;color: rgb(204, 204, 204); background-color: rgb(31, 31, 31); font-family: Consolas, &amp;quot;Courier New&amp;quot;, monospace; font-size: 14px; line-height: 19px; white-space: pre;&quot;&gt;&lt;div&gt;&lt;span style=&quot;color: #569cd6;&quot;&gt;public:&lt;/span&gt;&lt;/div&gt;&lt;div&gt;&amp;nbsp; &lt;span style=&quot;color: #dcdcaa;&quot;&gt;AnalysisSteering&lt;/span&gt;( &lt;span style=&quot;color: #569cd6;&quot;&gt;const&lt;/span&gt; &lt;span style=&quot;color: #4ec9b0;&quot;&gt;AnalysisInfo&lt;/span&gt;&lt;span style=&quot;color: #569cd6;&quot;&gt;*&lt;/span&gt; &lt;span style=&quot;color: #9cdcfe;&quot;&gt;info&lt;/span&gt; );&lt;/div&gt;&lt;div&gt;&amp;nbsp; &lt;span style=&quot;color: rgb(220, 220, 170);&quot;&gt;AnalysisSteering&lt;/span&gt; &amp;nbsp; &amp;nbsp; &amp;nbsp; &amp;nbsp; &amp;nbsp; ( &lt;span style=&quot;color: rgb(86, 156, 214);&quot;&gt;const&lt;/span&gt; &lt;span style=&quot;color: rgb(78, 201, 176);&quot;&gt;AnalysisSteering&lt;/span&gt;&lt;span style=&quot;color: rgb(212, 212, 212);&quot;&gt;&amp;amp;&lt;/span&gt; &lt;span style=&quot;color: rgb(156, 220, 254);&quot;&gt;x&lt;/span&gt; ) &lt;span style=&quot;color: rgb(212, 212, 212);&quot;&gt;=&lt;/span&gt; &lt;span style=&quot;color: rgb(197, 134, 192);&quot;&gt;delete&lt;/span&gt;;&lt;br&gt;&lt;/div&gt;&lt;div&gt;&amp;nbsp; &lt;span style=&quot;color: #4ec9b0;&quot;&gt;AnalysisSteering&lt;/span&gt;&lt;span style=&quot;color: #569cd6;&quot;&gt;&amp;amp;&lt;/span&gt; &lt;span style=&quot;color: #dcdcaa;&quot;&gt;operator=&lt;/span&gt;( &lt;span style=&quot;color: #569cd6;&quot;&gt;const&lt;/span&gt; &lt;span style=&quot;color: #4ec9b0;&quot;&gt;AnalysisSteering&lt;/span&gt;&lt;span style=&quot;color: #569cd6;&quot;&gt;&amp;amp;&lt;/span&gt; &lt;span style=&quot;color: #9cdcfe;&quot;&gt;x&lt;/span&gt; ) &lt;span style=&quot;color: #d4d4d4;&quot;&gt;=&lt;/span&gt; &lt;span style=&quot;color: #569cd6;&quot;&gt;delete&lt;/span&gt;;&lt;/div&gt;&lt;div&gt;&amp;nbsp; &lt;span style=&quot;color: #569cd6;&quot;&gt;virtual&lt;/span&gt; &lt;span style=&quot;color: #dcdcaa;&quot;&gt;~AnalysisSteering&lt;/span&gt;();&lt;/div&gt;&lt;br&gt;&lt;div&gt;&amp;nbsp; &lt;span style=&quot;color: rgb(86, 156, 214);&quot;&gt;virtual&lt;/span&gt; &lt;span style=&quot;color: rgb(86, 156, 214);&quot;&gt;void&lt;/span&gt; &lt;span style=&quot;color: rgb(220, 220, 170);&quot;&gt;beginJob&lt;/span&gt;() &lt;span style=&quot;color: rgb(212, 212, 212);&quot;&gt;=&lt;/span&gt; &lt;span style=&quot;color: rgb(181, 206, 168);&quot;&gt;0&lt;/span&gt;;&lt;br&gt;&lt;/div&gt;&lt;div&gt;&amp;nbsp; &lt;span style=&quot;color: rgb(86, 156, 214);&quot;&gt;virtual&lt;/span&gt; &lt;span style=&quot;color: rgb(86, 156, 214);&quot;&gt;void&lt;/span&gt; &amp;nbsp; &lt;span style=&quot;color: rgb(220, 220, 170);&quot;&gt;endJob&lt;/span&gt;() &lt;span style=&quot;color: rgb(212, 212, 212);&quot;&gt;=&lt;/span&gt; &lt;span style=&quot;color: rgb(181, 206, 168);&quot;&gt;0&lt;/span&gt;;&lt;/div&gt;&lt;div&gt;&lt;span style=&quot;color: #569cd6;&quot;&gt;&lt;br&gt;&lt;/span&gt;&lt;/div&gt;&lt;div&gt;&lt;span style=&quot;color: #569cd6;&quot;&gt;protected:&lt;/span&gt;&lt;/div&gt;&lt;div&gt;&amp;nbsp; &lt;span style=&quot;color: #569cd6;&quot;&gt;const&lt;/span&gt; &lt;span style=&quot;color: #4ec9b0;&quot;&gt;AnalysisInfo&lt;/span&gt;&lt;span style=&quot;color: #569cd6;&quot;&gt;*&lt;/span&gt; &lt;span style=&quot;color: #9cdcfe;&quot;&gt;aInfo&lt;/span&gt;;&lt;/div&gt;&lt;br&gt;&lt;/div&gt;" style="text;strokeColor=none;fillColor=none;align=left;verticalAlign=top;spacingLeft=4;spacingRight=4;overflow=hidden;rotatable=0;points=[[0,0.5],[1,0.5]];portConstraint=eastwest;whiteSpace=wrap;html=1;" vertex="1" parent="n8yumlOVsB6OTQwj1mip-69">
          <mxGeometry y="26" width="530" height="244" as="geometry" />
        </mxCell>
        <mxCell id="n8yumlOVsB6OTQwj1mip-73" value="&lt;b&gt;AnalysisFactory&lt;/b&gt;" style="swimlane;fontStyle=0;childLayout=stackLayout;horizontal=1;startSize=26;fillColor=none;horizontalStack=0;resizeParent=1;resizeParentMax=0;resizeLast=0;collapsible=1;marginBottom=0;whiteSpace=wrap;html=1;" vertex="1" parent="1">
          <mxGeometry x="-1625" y="2100" width="600" height="420" as="geometry" />
        </mxCell>
        <mxCell id="n8yumlOVsB6OTQwj1mip-74" value="&lt;div style=&quot;color: rgb(204, 204, 204); background-color: rgb(31, 31, 31); font-family: Consolas, &amp;quot;Courier New&amp;quot;, monospace; font-size: 14px; line-height: 19px; white-space: pre;&quot;&gt;&lt;div&gt;&lt;span style=&quot;color: #569cd6;&quot;&gt;public:&lt;/span&gt;&lt;/div&gt;&lt;br&gt;&lt;div&gt;&amp;nbsp; &lt;span style=&quot;color: #dcdcaa;&quot;&gt;AnalysisFactory&lt;/span&gt;();&lt;/div&gt;&lt;div&gt;&amp;nbsp; &lt;span style=&quot;color: rgb(220, 220, 170);&quot;&gt;AnalysisFactory&lt;/span&gt; &amp;nbsp; &amp;nbsp; &amp;nbsp; &amp;nbsp; &amp;nbsp; ( &lt;span style=&quot;color: rgb(86, 156, 214);&quot;&gt;const&lt;/span&gt; &lt;span style=&quot;color: rgb(78, 201, 176);&quot;&gt;AnalysisFactory&lt;/span&gt;&lt;span style=&quot;color: rgb(212, 212, 212);&quot;&gt;&amp;amp;&lt;/span&gt; &lt;span style=&quot;color: rgb(156, 220, 254);&quot;&gt;x&lt;/span&gt; ) &lt;span style=&quot;color: rgb(212, 212, 212);&quot;&gt;=&lt;/span&gt; &lt;span style=&quot;color: rgb(197, 134, 192);&quot;&gt;delete&lt;/span&gt;;&lt;br&gt;&lt;/div&gt;&lt;div&gt;&amp;nbsp; &lt;span style=&quot;color: #4ec9b0;&quot;&gt;AnalysisFactory&lt;/span&gt;&lt;span style=&quot;color: #569cd6;&quot;&gt;&amp;amp;&lt;/span&gt; &lt;span style=&quot;color: #dcdcaa;&quot;&gt;operator=&lt;/span&gt;( &lt;span style=&quot;color: #569cd6;&quot;&gt;const&lt;/span&gt; &lt;span style=&quot;color: #4ec9b0;&quot;&gt;AnalysisFactory&lt;/span&gt;&lt;span style=&quot;color: #569cd6;&quot;&gt;&amp;amp;&lt;/span&gt; &lt;span style=&quot;color: #9cdcfe;&quot;&gt;x&lt;/span&gt; ) &lt;span style=&quot;color: #d4d4d4;&quot;&gt;=&lt;/span&gt; &lt;span style=&quot;color: #569cd6;&quot;&gt;delete&lt;/span&gt;;&lt;/div&gt;&lt;div&gt;&amp;nbsp; &lt;span style=&quot;color: #569cd6;&quot;&gt;virtual&lt;/span&gt; &lt;span style=&quot;color: #dcdcaa;&quot;&gt;~AnalysisFactory&lt;/span&gt;();&lt;/div&gt;&lt;br&gt;&lt;div&gt;&amp;nbsp; &lt;span style=&quot;color: #569cd6;&quot;&gt;static&lt;/span&gt; &lt;span style=&quot;color: #4ec9b0;&quot;&gt;std&lt;/span&gt;::&lt;span style=&quot;color: #4ec9b0;&quot;&gt;vector&lt;/span&gt;&amp;lt;&lt;span style=&quot;color: #4ec9b0;&quot;&gt;AnalysisSteering&lt;/span&gt;&lt;span style=&quot;color: #d4d4d4;&quot;&gt;*&lt;/span&gt;&amp;gt; &lt;span style=&quot;color: #dcdcaa;&quot;&gt;create&lt;/span&gt;( &lt;span style=&quot;color: #569cd6;&quot;&gt;const&lt;/span&gt; &lt;span style=&quot;color: #4ec9b0;&quot;&gt;AnalysisInfo&lt;/span&gt;&lt;span style=&quot;color: #569cd6;&quot;&gt;*&lt;/span&gt; &lt;span style=&quot;color: #9cdcfe;&quot;&gt;info&lt;/span&gt; );&lt;/div&gt;&lt;div&gt;&amp;nbsp; &lt;span style=&quot;color: #569cd6;&quot;&gt;class&lt;/span&gt; &lt;span style=&quot;color: #4ec9b0;&quot;&gt;AbsFactory&lt;/span&gt; {&lt;/div&gt;&lt;div&gt;&amp;nbsp; &amp;nbsp;&lt;span style=&quot;color: #569cd6;&quot;&gt;public:&lt;/span&gt;&lt;/div&gt;&lt;div&gt;&amp;nbsp; &amp;nbsp; &lt;span style=&quot;color: rgb(220, 220, 170);&quot;&gt;AbsFactory&lt;/span&gt;( &lt;span style=&quot;color: rgb(86, 156, 214);&quot;&gt;const&lt;/span&gt; &lt;span style=&quot;color: rgb(78, 201, 176);&quot;&gt;std&lt;/span&gt;::&lt;span style=&quot;color: rgb(78, 201, 176);&quot;&gt;string&lt;/span&gt;&lt;span style=&quot;color: rgb(86, 156, 214);&quot;&gt;&amp;amp;&lt;/span&gt; &lt;span style=&quot;color: rgb(156, 220, 254);&quot;&gt;name&lt;/span&gt; ) { &lt;span style=&quot;color: rgb(220, 220, 170);&quot;&gt;registerFactory&lt;/span&gt;( &lt;span style=&quot;color: rgb(156, 220, 254);&quot;&gt;name&lt;/span&gt;, &lt;span style=&quot;color: rgb(86, 156, 214);&quot;&gt;this&lt;/span&gt; ); } &lt;br&gt;&lt;/div&gt;&lt;div&gt;&amp;nbsp; &amp;nbsp; &lt;span style=&quot;color: #569cd6;&quot;&gt;virtual&lt;/span&gt; &lt;span style=&quot;color: #dcdcaa;&quot;&gt;~AbsFactory&lt;/span&gt;() {}&lt;/div&gt;&lt;div&gt;&amp;nbsp; &amp;nbsp; &lt;span style=&quot;color: #569cd6;&quot;&gt;virtual&lt;/span&gt; &lt;span style=&quot;color: #4ec9b0;&quot;&gt;AnalysisSteering&lt;/span&gt;&lt;span style=&quot;color: #569cd6;&quot;&gt;*&lt;/span&gt; &lt;span style=&quot;color: #dcdcaa;&quot;&gt;create&lt;/span&gt;( &lt;span style=&quot;color: #569cd6;&quot;&gt;const&lt;/span&gt; &lt;span style=&quot;color: #4ec9b0;&quot;&gt;AnalysisInfo&lt;/span&gt;&lt;span style=&quot;color: #569cd6;&quot;&gt;*&lt;/span&gt; &lt;span style=&quot;color: #9cdcfe;&quot;&gt;info&lt;/span&gt; ) &lt;span style=&quot;color: #d4d4d4;&quot;&gt;=&lt;/span&gt; &lt;span style=&quot;color: #b5cea8;&quot;&gt;0&lt;/span&gt;;&lt;/div&gt;&lt;div&gt;&amp;nbsp; };&lt;/div&gt;&lt;br&gt;&lt;div&gt;&amp;nbsp;&lt;span style=&quot;color: #569cd6;&quot;&gt;private:&lt;/span&gt;&lt;/div&gt;&lt;br&gt;&lt;div&gt;&amp;nbsp; &lt;span style=&quot;color: rgb(86, 156, 214);&quot;&gt;static&lt;/span&gt; &lt;span style=&quot;color: rgb(86, 156, 214);&quot;&gt;void&lt;/span&gt; &lt;span style=&quot;color: rgb(220, 220, 170);&quot;&gt;registerFactory&lt;/span&gt;( &lt;span style=&quot;color: rgb(86, 156, 214);&quot;&gt;const&lt;/span&gt; &lt;span style=&quot;color: rgb(78, 201, 176);&quot;&gt;std&lt;/span&gt;::&lt;span style=&quot;color: rgb(78, 201, 176);&quot;&gt;string&lt;/span&gt;&lt;span style=&quot;color: rgb(86, 156, 214);&quot;&gt;&amp;amp;&lt;/span&gt; &lt;span style=&quot;color: rgb(156, 220, 254);&quot;&gt;name&lt;/span&gt;, &lt;span style=&quot;color: rgb(78, 201, 176);&quot;&gt;AbsFactory&lt;/span&gt;&lt;span style=&quot;color: rgb(86, 156, 214);&quot;&gt;*&lt;/span&gt; &lt;span style=&quot;color: rgb(156, 220, 254);&quot;&gt;f&lt;/span&gt; );&lt;br&gt;&lt;/div&gt;&lt;div&gt;&amp;nbsp; &lt;span style=&quot;color: rgb(86, 156, 214);&quot;&gt;static&lt;/span&gt; &lt;span style=&quot;color: rgb(78, 201, 176);&quot;&gt;std&lt;/span&gt;::&lt;span style=&quot;color: rgb(78, 201, 176);&quot;&gt;map&lt;/span&gt;&amp;lt;&lt;span style=&quot;color: rgb(78, 201, 176);&quot;&gt;std&lt;/span&gt;::&lt;span style=&quot;color: rgb(78, 201, 176);&quot;&gt;string&lt;/span&gt;,&lt;span style=&quot;color: rgb(78, 201, 176);&quot;&gt;AbsFactory&lt;/span&gt;&lt;span style=&quot;color: rgb(212, 212, 212);&quot;&gt;*&lt;/span&gt;&amp;gt;&lt;span style=&quot;color: rgb(86, 156, 214);&quot;&gt;*&lt;/span&gt; &lt;span style=&quot;color: rgb(220, 220, 170);&quot;&gt;factoryMap&lt;/span&gt;();&lt;br&gt;&lt;/div&gt;&lt;br&gt;&lt;/div&gt;" style="text;strokeColor=none;fillColor=none;align=left;verticalAlign=top;spacingLeft=4;spacingRight=4;overflow=hidden;rotatable=0;points=[[0,0.5],[1,0.5]];portConstraint=eastwest;whiteSpace=wrap;html=1;" vertex="1" parent="n8yumlOVsB6OTQwj1mip-73">
          <mxGeometry y="26" width="600" height="394" as="geometry" />
        </mxCell>
        <mxCell id="n8yumlOVsB6OTQwj1mip-82" value="&lt;b&gt;SourceFactory&lt;/b&gt;" style="swimlane;fontStyle=0;childLayout=stackLayout;horizontal=1;startSize=26;fillColor=none;horizontalStack=0;resizeParent=1;resizeParentMax=0;resizeLast=0;collapsible=1;marginBottom=0;whiteSpace=wrap;html=1;" vertex="1" parent="1">
          <mxGeometry x="480" y="2100" width="490" height="170" as="geometry" />
        </mxCell>
        <mxCell id="n8yumlOVsB6OTQwj1mip-85" value="&lt;div style=&quot;color: rgb(204, 204, 204); background-color: rgb(31, 31, 31); font-family: Consolas, &amp;quot;Courier New&amp;quot;, monospace; font-size: 14px; line-height: 19px; white-space: pre;&quot;&gt;&lt;div&gt;&lt;span style=&quot;color: #569cd6;&quot;&gt;public:&lt;/span&gt;&lt;/div&gt;&lt;br&gt;&lt;div&gt;&amp;nbsp; &lt;span style=&quot;color: #dcdcaa;&quot;&gt;SourceFactory&lt;/span&gt;();&lt;/div&gt;&lt;div&gt;&amp;nbsp; &lt;span style=&quot;color: rgb(220, 220, 170);&quot;&gt;SourceFactory&lt;/span&gt; &amp;nbsp; &amp;nbsp; &amp;nbsp; &amp;nbsp; &amp;nbsp; ( &lt;span style=&quot;color: rgb(86, 156, 214);&quot;&gt;const&lt;/span&gt; &lt;span style=&quot;color: rgb(78, 201, 176);&quot;&gt;SourceFactory&lt;/span&gt;&lt;span style=&quot;color: rgb(212, 212, 212);&quot;&gt;&amp;amp;&lt;/span&gt; &lt;span style=&quot;color: rgb(156, 220, 254);&quot;&gt;x&lt;/span&gt; ) &lt;span style=&quot;color: rgb(212, 212, 212);&quot;&gt;=&lt;/span&gt; &lt;span style=&quot;color: rgb(197, 134, 192);&quot;&gt;delete&lt;/span&gt;;&lt;br&gt;&lt;/div&gt;&lt;div&gt;&amp;nbsp; &lt;span style=&quot;color: #4ec9b0;&quot;&gt;SourceFactory&lt;/span&gt;&lt;span style=&quot;color: #569cd6;&quot;&gt;&amp;amp;&lt;/span&gt; &lt;span style=&quot;color: #dcdcaa;&quot;&gt;operator=&lt;/span&gt;( &lt;span style=&quot;color: #569cd6;&quot;&gt;const&lt;/span&gt; &lt;span style=&quot;color: #4ec9b0;&quot;&gt;SourceFactory&lt;/span&gt;&lt;span style=&quot;color: #569cd6;&quot;&gt;&amp;amp;&lt;/span&gt; &lt;span style=&quot;color: #9cdcfe;&quot;&gt;x&lt;/span&gt; ) &lt;span style=&quot;color: #d4d4d4;&quot;&gt;=&lt;/span&gt; &lt;span style=&quot;color: #569cd6;&quot;&gt;delete&lt;/span&gt;;&lt;/div&gt;&lt;div&gt;&amp;nbsp; &lt;span style=&quot;color: #569cd6;&quot;&gt;virtual&lt;/span&gt; &lt;span style=&quot;color: #dcdcaa;&quot;&gt;~SourceFactory&lt;/span&gt;();&lt;/div&gt;&lt;div&gt;&amp;nbsp; &lt;span style=&quot;color: rgb(86, 156, 214);&quot;&gt;static&lt;/span&gt; &lt;span style=&quot;color: rgb(78, 201, 176);&quot;&gt;EventSource&lt;/span&gt;&lt;span style=&quot;color: rgb(86, 156, 214);&quot;&gt;*&lt;/span&gt; &lt;span style=&quot;color: rgb(220, 220, 170);&quot;&gt;create&lt;/span&gt;( &lt;span style=&quot;color: rgb(86, 156, 214);&quot;&gt;const&lt;/span&gt; &lt;span style=&quot;color: rgb(78, 201, 176);&quot;&gt;AnalysisInfo&lt;/span&gt;&lt;span style=&quot;color: rgb(86, 156, 214);&quot;&gt;*&lt;/span&gt; &lt;span style=&quot;color: rgb(156, 220, 254);&quot;&gt;info&lt;/span&gt; );&lt;/div&gt;&lt;/div&gt;" style="text;strokeColor=none;fillColor=none;align=left;verticalAlign=top;spacingLeft=4;spacingRight=4;overflow=hidden;rotatable=0;points=[[0,0.5],[1,0.5]];portConstraint=eastwest;whiteSpace=wrap;html=1;" vertex="1" parent="n8yumlOVsB6OTQwj1mip-82">
          <mxGeometry y="26" width="490" height="144" as="geometry" />
        </mxCell>
        <mxCell id="n8yumlOVsB6OTQwj1mip-86" value="&lt;b&gt;EventSource&lt;/b&gt;" style="swimlane;fontStyle=0;childLayout=stackLayout;horizontal=1;startSize=26;fillColor=none;horizontalStack=0;resizeParent=1;resizeParentMax=0;resizeLast=0;collapsible=1;marginBottom=0;whiteSpace=wrap;html=1;" vertex="1" parent="1">
          <mxGeometry x="495" y="2680" width="460" height="300" as="geometry" />
        </mxCell>
        <mxCell id="n8yumlOVsB6OTQwj1mip-89" value="&lt;div style=&quot;color: rgb(204, 204, 204); background-color: rgb(31, 31, 31); font-family: Consolas, &amp;quot;Courier New&amp;quot;, monospace; font-size: 14px; line-height: 19px; white-space: pre;&quot;&gt;&lt;div&gt;&lt;span style=&quot;color: #dcdcaa;&quot;&gt;EventSource&lt;/span&gt;();&lt;/div&gt;&lt;div&gt;&lt;span style=&quot;color: #6a9955;&quot;&gt;&amp;nbsp; // deleted copy constructor and assignment to prevent unadvertent copy&lt;/span&gt;&lt;/div&gt;&lt;div&gt;&amp;nbsp; &lt;span style=&quot;color: #dcdcaa;&quot;&gt;EventSource&lt;/span&gt; &amp;nbsp; &amp;nbsp; &amp;nbsp; &amp;nbsp; &amp;nbsp; ( &lt;span style=&quot;color: #569cd6;&quot;&gt;const&lt;/span&gt; &lt;span style=&quot;color: #4ec9b0;&quot;&gt;EventSource&lt;/span&gt;&lt;span style=&quot;color: #d4d4d4;&quot;&gt;&amp;amp;&lt;/span&gt; &lt;span style=&quot;color: #9cdcfe;&quot;&gt;x&lt;/span&gt; ) &lt;span style=&quot;color: #d4d4d4;&quot;&gt;=&lt;/span&gt; &lt;span style=&quot;color: #c586c0;&quot;&gt;delete&lt;/span&gt;;&lt;/div&gt;&lt;div&gt;&amp;nbsp; &lt;span style=&quot;color: #4ec9b0;&quot;&gt;EventSource&lt;/span&gt;&lt;span style=&quot;color: #569cd6;&quot;&gt;&amp;amp;&lt;/span&gt; &lt;span style=&quot;color: #dcdcaa;&quot;&gt;operator=&lt;/span&gt;( &lt;span style=&quot;color: #569cd6;&quot;&gt;const&lt;/span&gt; &lt;span style=&quot;color: #4ec9b0;&quot;&gt;EventSource&lt;/span&gt;&lt;span style=&quot;color: #569cd6;&quot;&gt;&amp;amp;&lt;/span&gt; &lt;span style=&quot;color: #9cdcfe;&quot;&gt;x&lt;/span&gt; ) &lt;span style=&quot;color: #d4d4d4;&quot;&gt;=&lt;/span&gt; &lt;span style=&quot;color: #569cd6;&quot;&gt;delete&lt;/span&gt;;&lt;/div&gt;&lt;div&gt;&amp;nbsp;&lt;/div&gt;&lt;div&gt;&amp;nbsp; &lt;span style=&quot;color: #569cd6;&quot;&gt;virtual&lt;/span&gt; &lt;span style=&quot;color: #dcdcaa;&quot;&gt;~EventSource&lt;/span&gt;();&lt;/div&gt;&lt;br&gt;&lt;div&gt;&lt;span style=&quot;color: #6a9955;&quot;&gt;&amp;nbsp; // get events&lt;/span&gt;&lt;/div&gt;&lt;div&gt;&amp;nbsp; &lt;span style=&quot;color: #569cd6;&quot;&gt;virtual&lt;/span&gt; &lt;span style=&quot;color: #569cd6;&quot;&gt;void&lt;/span&gt; &lt;span style=&quot;color: #dcdcaa;&quot;&gt;run&lt;/span&gt;();&lt;/div&gt;&lt;div&gt;&amp;nbsp;&lt;/div&gt;&lt;div&gt;&amp;nbsp;&lt;span style=&quot;color: #569cd6;&quot;&gt;private:&lt;/span&gt;&lt;/div&gt;&lt;br&gt;&lt;div&gt;&lt;span style=&quot;color: #6a9955;&quot;&gt;&amp;nbsp; // get an event&lt;/span&gt;&lt;/div&gt;&lt;div&gt;&amp;nbsp; &lt;span style=&quot;color: #569cd6;&quot;&gt;virtual&lt;/span&gt; &lt;span style=&quot;color: #569cd6;&quot;&gt;const&lt;/span&gt; &lt;span style=&quot;color: #4ec9b0;&quot;&gt;Event&lt;/span&gt;&lt;span style=&quot;color: #569cd6;&quot;&gt;*&lt;/span&gt; &lt;span style=&quot;color: #dcdcaa;&quot;&gt;get&lt;/span&gt;() &lt;span style=&quot;color: #d4d4d4;&quot;&gt;=&lt;/span&gt; &lt;span style=&quot;color: #b5cea8;&quot;&gt;0&lt;/span&gt;;&lt;/div&gt;&lt;br&gt;&lt;/div&gt;" style="text;strokeColor=none;fillColor=none;align=left;verticalAlign=top;spacingLeft=4;spacingRight=4;overflow=hidden;rotatable=0;points=[[0,0.5],[1,0.5]];portConstraint=eastwest;whiteSpace=wrap;html=1;" vertex="1" parent="n8yumlOVsB6OTQwj1mip-86">
          <mxGeometry y="26" width="460" height="274" as="geometry" />
        </mxCell>
        <mxCell id="n8yumlOVsB6OTQwj1mip-94" value="&lt;b&gt;EventReadFromFile&lt;/b&gt;" style="swimlane;fontStyle=0;childLayout=stackLayout;horizontal=1;startSize=26;fillColor=none;horizontalStack=0;resizeParent=1;resizeParentMax=0;resizeLast=0;collapsible=1;marginBottom=0;whiteSpace=wrap;html=1;" vertex="1" parent="1">
          <mxGeometry x="120" y="3040" width="550" height="410" as="geometry" />
        </mxCell>
        <mxCell id="n8yumlOVsB6OTQwj1mip-97" value="&lt;div style=&quot;color: rgb(204, 204, 204); background-color: rgb(31, 31, 31); font-family: Consolas, &amp;quot;Courier New&amp;quot;, monospace; font-size: 14px; line-height: 19px; white-space: pre;&quot;&gt;&lt;div&gt;&lt;span style=&quot;color: #569cd6;&quot;&gt;public:&lt;/span&gt;&lt;/div&gt;&lt;br&gt;&lt;div&gt;&lt;span style=&quot;color: #6a9955;&quot;&gt;&amp;nbsp; // read data from file &quot;name&quot;&lt;/span&gt;&lt;/div&gt;&lt;div&gt;&amp;nbsp; &lt;span style=&quot;color: #dcdcaa;&quot;&gt;EventReadFromFile&lt;/span&gt;( &lt;span style=&quot;color: #569cd6;&quot;&gt;const&lt;/span&gt; &lt;span style=&quot;color: #4ec9b0;&quot;&gt;std&lt;/span&gt;::&lt;span style=&quot;color: #4ec9b0;&quot;&gt;string&lt;/span&gt;&lt;span style=&quot;color: #569cd6;&quot;&gt;&amp;amp;&lt;/span&gt; &lt;span style=&quot;color: #9cdcfe;&quot;&gt;name&lt;/span&gt; );&lt;/div&gt;&lt;div&gt;&lt;span style=&quot;color: #6a9955;&quot;&gt;&amp;nbsp; // deleted copy constructor and assignment to prevent unadvertent copy&lt;/span&gt;&lt;/div&gt;&lt;div&gt;&amp;nbsp; &lt;span style=&quot;color: #dcdcaa;&quot;&gt;EventReadFromFile&lt;/span&gt; &amp;nbsp; &amp;nbsp; &amp;nbsp; &amp;nbsp; &amp;nbsp; ( &lt;span style=&quot;color: #569cd6;&quot;&gt;const&lt;/span&gt; &lt;span style=&quot;color: #4ec9b0;&quot;&gt;EventReadFromFile&lt;/span&gt;&lt;span style=&quot;color: #d4d4d4;&quot;&gt;&amp;amp;&lt;/span&gt; &lt;span style=&quot;color: #9cdcfe;&quot;&gt;x&lt;/span&gt; ) &lt;span style=&quot;color: #d4d4d4;&quot;&gt;=&lt;/span&gt; &lt;span style=&quot;color: #c586c0;&quot;&gt;delete&lt;/span&gt;;&lt;/div&gt;&lt;div&gt;&amp;nbsp; &lt;span style=&quot;color: #4ec9b0;&quot;&gt;EventReadFromFile&lt;/span&gt;&lt;span style=&quot;color: #569cd6;&quot;&gt;&amp;amp;&lt;/span&gt; &lt;span style=&quot;color: #dcdcaa;&quot;&gt;operator=&lt;/span&gt;( &lt;span style=&quot;color: #569cd6;&quot;&gt;const&lt;/span&gt; &lt;span style=&quot;color: #4ec9b0;&quot;&gt;EventReadFromFile&lt;/span&gt;&lt;span style=&quot;color: #569cd6;&quot;&gt;&amp;amp;&lt;/span&gt; &lt;span style=&quot;color: #9cdcfe;&quot;&gt;x&lt;/span&gt; ) &lt;span style=&quot;color: #d4d4d4;&quot;&gt;=&lt;/span&gt; &lt;span style=&quot;color: #569cd6;&quot;&gt;delete&lt;/span&gt;;&lt;/div&gt;&lt;br&gt;&lt;div&gt;&amp;nbsp; &lt;span style=&quot;color: #dcdcaa;&quot;&gt;~EventReadFromFile&lt;/span&gt;() &lt;span style=&quot;color: #569cd6;&quot;&gt;override&lt;/span&gt;;&lt;/div&gt;&lt;br&gt;&lt;div&gt;&amp;nbsp;&lt;span style=&quot;color: #569cd6;&quot;&gt;private:&lt;/span&gt;&lt;/div&gt;&lt;br&gt;&lt;div&gt;&lt;span style=&quot;color: #6a9955;&quot;&gt;&amp;nbsp; // get an event&lt;/span&gt;&lt;/div&gt;&lt;div&gt;&amp;nbsp; &lt;span style=&quot;color: #569cd6;&quot;&gt;const&lt;/span&gt; &lt;span style=&quot;color: #4ec9b0;&quot;&gt;Event&lt;/span&gt;&lt;span style=&quot;color: #569cd6;&quot;&gt;*&lt;/span&gt; &lt;span style=&quot;color: #dcdcaa;&quot;&gt;get&lt;/span&gt;() &lt;span style=&quot;color: #569cd6;&quot;&gt;override&lt;/span&gt;;&lt;/div&gt;&lt;br&gt;&lt;div&gt;&lt;span style=&quot;color: #6a9955;&quot;&gt;&amp;nbsp; // input file&lt;/span&gt;&lt;/div&gt;&lt;div&gt;&amp;nbsp; &lt;span style=&quot;color: #4ec9b0;&quot;&gt;std&lt;/span&gt;::&lt;span style=&quot;color: #4ec9b0;&quot;&gt;ifstream&lt;/span&gt;&lt;span style=&quot;color: #569cd6;&quot;&gt;*&lt;/span&gt; &lt;span style=&quot;color: #9cdcfe;&quot;&gt;file&lt;/span&gt;;&lt;/div&gt;&lt;br&gt;&lt;div&gt;&lt;span style=&quot;color: #6a9955;&quot;&gt;&amp;nbsp; // read and event&lt;/span&gt;&lt;/div&gt;&lt;div&gt;&amp;nbsp; &lt;span style=&quot;color: #569cd6;&quot;&gt;const&lt;/span&gt; &lt;span style=&quot;color: #4ec9b0;&quot;&gt;Event&lt;/span&gt;&lt;span style=&quot;color: #569cd6;&quot;&gt;*&lt;/span&gt; &lt;span style=&quot;color: #dcdcaa;&quot;&gt;readFile&lt;/span&gt;();&lt;/div&gt;&lt;br&gt;&lt;/div&gt;" style="text;strokeColor=none;fillColor=none;align=left;verticalAlign=top;spacingLeft=4;spacingRight=4;overflow=hidden;rotatable=0;points=[[0,0.5],[1,0.5]];portConstraint=eastwest;whiteSpace=wrap;html=1;" vertex="1" parent="n8yumlOVsB6OTQwj1mip-94">
          <mxGeometry y="26" width="550" height="384" as="geometry" />
        </mxCell>
        <mxCell id="n8yumlOVsB6OTQwj1mip-98" value="&lt;b&gt;EventSim&lt;/b&gt;" style="swimlane;fontStyle=0;childLayout=stackLayout;horizontal=1;startSize=26;fillColor=none;horizontalStack=0;resizeParent=1;resizeParentMax=0;resizeLast=0;collapsible=1;marginBottom=0;whiteSpace=wrap;html=1;" vertex="1" parent="1">
          <mxGeometry x="1020" y="3040" width="410" height="260" as="geometry" />
        </mxCell>
        <mxCell id="n8yumlOVsB6OTQwj1mip-101" value="&lt;div style=&quot;color: rgb(204, 204, 204); background-color: rgb(31, 31, 31); font-family: Consolas, &amp;quot;Courier New&amp;quot;, monospace; font-size: 14px; line-height: 19px; white-space: pre;&quot;&gt;&lt;div&gt;&lt;span style=&quot;color: #569cd6;&quot;&gt;public:&lt;/span&gt;&lt;/div&gt;&lt;br&gt;&lt;div&gt;&lt;span style=&quot;color: #6a9955;&quot;&gt;&amp;nbsp; &lt;/span&gt;&lt;span style=&quot;color: rgb(220, 220, 170);&quot;&gt;EventSim&lt;/span&gt;( &lt;span style=&quot;color: rgb(86, 156, 214);&quot;&gt;unsigned&lt;/span&gt; &lt;span style=&quot;color: rgb(86, 156, 214);&quot;&gt;int&lt;/span&gt; &lt;span style=&quot;color: rgb(156, 220, 254);&quot;&gt;n&lt;/span&gt;, &lt;span style=&quot;color: rgb(86, 156, 214);&quot;&gt;unsigned&lt;/span&gt; &lt;span style=&quot;color: rgb(86, 156, 214);&quot;&gt;int&lt;/span&gt; &lt;span style=&quot;color: rgb(156, 220, 254);&quot;&gt;s&lt;/span&gt; );&lt;/div&gt;&lt;div&gt;&lt;span style=&quot;color: #6a9955;&quot;&gt;&amp;nbsp; &lt;/span&gt;&lt;span style=&quot;color: rgb(220, 220, 170);&quot;&gt;EventSim&lt;/span&gt; &amp;nbsp; &amp;nbsp; &amp;nbsp; &amp;nbsp; &amp;nbsp; ( &lt;span style=&quot;color: rgb(86, 156, 214);&quot;&gt;const&lt;/span&gt; &lt;span style=&quot;color: rgb(78, 201, 176);&quot;&gt;EventSim&lt;/span&gt;&lt;span style=&quot;color: rgb(212, 212, 212);&quot;&gt;&amp;amp;&lt;/span&gt; &lt;span style=&quot;color: rgb(156, 220, 254);&quot;&gt;x&lt;/span&gt; ) &lt;span style=&quot;color: rgb(212, 212, 212);&quot;&gt;=&lt;/span&gt; &lt;span style=&quot;color: rgb(197, 134, 192);&quot;&gt;delete&lt;/span&gt;;&lt;/div&gt;&lt;div&gt;&amp;nbsp; &lt;span style=&quot;color: #4ec9b0;&quot;&gt;EventSim&lt;/span&gt;&lt;span style=&quot;color: #569cd6;&quot;&gt;&amp;amp;&lt;/span&gt; &lt;span style=&quot;color: #dcdcaa;&quot;&gt;operator=&lt;/span&gt;( &lt;span style=&quot;color: #569cd6;&quot;&gt;const&lt;/span&gt; &lt;span style=&quot;color: #4ec9b0;&quot;&gt;EventSim&lt;/span&gt;&lt;span style=&quot;color: #569cd6;&quot;&gt;&amp;amp;&lt;/span&gt; &lt;span style=&quot;color: #9cdcfe;&quot;&gt;x&lt;/span&gt; ) &lt;span style=&quot;color: #d4d4d4;&quot;&gt;=&lt;/span&gt; &lt;span style=&quot;color: #569cd6;&quot;&gt;delete&lt;/span&gt;;&lt;/div&gt;&lt;div&gt;&lt;span style=&quot;color: rgb(220, 220, 170);&quot;&gt;  ~EventSim&lt;/span&gt;() &lt;span style=&quot;color: rgb(86, 156, 214);&quot;&gt;override&lt;/span&gt;;&lt;/div&gt;&lt;br&gt;&lt;div&gt;&amp;nbsp;&lt;span style=&quot;color: #569cd6;&quot;&gt;private:&lt;/span&gt;&lt;/div&gt;&lt;div&gt;&lt;span style=&quot;color: #569cd6;&quot;&gt;  ...&lt;/span&gt;&lt;/div&gt;&lt;div&gt;&lt;span style=&quot;color: #569cd6;&quot;&gt;  ...&lt;/span&gt;&lt;/div&gt;&lt;div&gt;&lt;span style=&quot;color: #569cd6;&quot;&gt;  ...&lt;span style=&quot;white-space: pre;&quot;&gt;&#x9;&lt;/span&gt;&lt;br&gt;&lt;/span&gt;&lt;/div&gt;&lt;/div&gt;" style="text;strokeColor=none;fillColor=none;align=left;verticalAlign=top;spacingLeft=4;spacingRight=4;overflow=hidden;rotatable=0;points=[[0,0.5],[1,0.5]];portConstraint=eastwest;whiteSpace=wrap;html=1;" vertex="1" parent="n8yumlOVsB6OTQwj1mip-98">
          <mxGeometry y="26" width="410" height="234" as="geometry" />
        </mxCell>
        <mxCell id="n8yumlOVsB6OTQwj1mip-104" value="&lt;b&gt;ActiveObserver&lt;/b&gt;" style="swimlane;fontStyle=0;childLayout=stackLayout;horizontal=1;startSize=26;fillColor=none;horizontalStack=0;resizeParent=1;resizeParentMax=0;resizeLast=0;collapsible=1;marginBottom=0;whiteSpace=wrap;html=1;" vertex="1" parent="1">
          <mxGeometry x="-500" y="3870" width="510" height="270" as="geometry" />
        </mxCell>
        <mxCell id="n8yumlOVsB6OTQwj1mip-106" value="&lt;div style=&quot;color: rgb(204, 204, 204); background-color: rgb(31, 31, 31); font-family: Consolas, &amp;quot;Courier New&amp;quot;, monospace; font-size: 14px; line-height: 19px; white-space: pre;&quot;&gt;&lt;div&gt;&lt;span style=&quot;color: #569cd6;&quot;&gt;public:&lt;/span&gt;&lt;/div&gt;&lt;br&gt;&lt;div&gt;&lt;span style=&quot;color: #6a9955;&quot;&gt;&amp;nbsp; // constructor&lt;/span&gt;&lt;/div&gt;&lt;div&gt;&amp;nbsp; &lt;span style=&quot;color: #dcdcaa;&quot;&gt;ActiveObserver&lt;/span&gt;();&lt;/div&gt;&lt;div&gt;&lt;span style=&quot;color: #6a9955;&quot;&gt;&amp;nbsp; // deleted copy constructor and assignment to prevent unadvertent copy&lt;/span&gt;&lt;/div&gt;&lt;div&gt;&amp;nbsp; &lt;span style=&quot;color: #dcdcaa;&quot;&gt;ActiveObserver&lt;/span&gt; &amp;nbsp; &amp;nbsp; &amp;nbsp; &amp;nbsp; &amp;nbsp; ( &lt;span style=&quot;color: #569cd6;&quot;&gt;const&lt;/span&gt; &lt;span style=&quot;color: #9cdcfe;&quot;&gt;ActiveObserver&lt;/span&gt;&lt;span style=&quot;color: #d4d4d4;&quot;&gt;&amp;amp;&lt;/span&gt; &lt;span style=&quot;color: #9cdcfe;&quot;&gt;x&lt;/span&gt; ) &lt;span style=&quot;color: #d4d4d4;&quot;&gt;=&lt;/span&gt; &lt;span style=&quot;color: #c586c0;&quot;&gt;delete&lt;/span&gt;;&lt;/div&gt;&lt;div&gt;&amp;nbsp; &lt;span style=&quot;color: #4ec9b0;&quot;&gt;ActiveObserver&lt;/span&gt;&lt;span style=&quot;color: #569cd6;&quot;&gt;&amp;amp;&lt;/span&gt; &lt;span style=&quot;color: #c586c0;&quot;&gt;operator=&lt;/span&gt;( &lt;span style=&quot;color: #569cd6;&quot;&gt;const&lt;/span&gt; &lt;span style=&quot;color: #4ec9b0;&quot;&gt;ActiveObserver&lt;/span&gt;&lt;span style=&quot;color: #569cd6;&quot;&gt;&amp;amp;&lt;/span&gt; &lt;span style=&quot;color: #9cdcfe;&quot;&gt;x&lt;/span&gt; ) &lt;span style=&quot;color: #d4d4d4;&quot;&gt;=&lt;/span&gt; &lt;span style=&quot;color: #569cd6;&quot;&gt;delete&lt;/span&gt;;&lt;/div&gt;&lt;br&gt;&lt;div&gt;&lt;span style=&quot;color: #6a9955;&quot;&gt;&amp;nbsp; // destructor&lt;/span&gt;&lt;/div&gt;&lt;div&gt;&amp;nbsp; &lt;span style=&quot;color: #569cd6;&quot;&gt;virtual&lt;/span&gt; &lt;span style=&quot;color: #dcdcaa;&quot;&gt;~ActiveObserver&lt;/span&gt;();&lt;/div&gt;&lt;br&gt;&lt;div&gt;&amp;nbsp; &lt;span style=&quot;color: #569cd6;&quot;&gt;virtual&lt;/span&gt; &lt;span style=&quot;color: #569cd6;&quot;&gt;void&lt;/span&gt; &lt;span style=&quot;color: #dcdcaa;&quot;&gt;update&lt;/span&gt;( &lt;span style=&quot;color: #569cd6;&quot;&gt;const&lt;/span&gt; &lt;span style=&quot;color: #4ec9b0;&quot;&gt;T&lt;/span&gt;&lt;span style=&quot;color: #569cd6;&quot;&gt;&amp;amp;&lt;/span&gt; &lt;span style=&quot;color: #9cdcfe;&quot;&gt;x&lt;/span&gt; ) &lt;span style=&quot;color: #d4d4d4;&quot;&gt;=&lt;/span&gt; &lt;span style=&quot;color: #b5cea8;&quot;&gt;0&lt;/span&gt;;&lt;/div&gt;&lt;/div&gt;" style="text;strokeColor=none;fillColor=none;align=left;verticalAlign=top;spacingLeft=4;spacingRight=4;overflow=hidden;rotatable=0;points=[[0,0.5],[1,0.5]];portConstraint=eastwest;whiteSpace=wrap;html=1;" vertex="1" parent="n8yumlOVsB6OTQwj1mip-104">
          <mxGeometry y="26" width="510" height="244" as="geometry" />
        </mxCell>
        <mxCell id="n8yumlOVsB6OTQwj1mip-108" value="&lt;b&gt;LazyObserver&lt;/b&gt;" style="swimlane;fontStyle=0;childLayout=stackLayout;horizontal=1;startSize=26;fillColor=none;horizontalStack=0;resizeParent=1;resizeParentMax=0;resizeLast=0;collapsible=1;marginBottom=0;whiteSpace=wrap;html=1;" vertex="1" parent="1">
          <mxGeometry x="40" y="3870" width="490" height="450" as="geometry" />
        </mxCell>
        <mxCell id="n8yumlOVsB6OTQwj1mip-111" value="&lt;div style=&quot;color: rgb(204, 204, 204); background-color: rgb(31, 31, 31); font-family: Consolas, &amp;quot;Courier New&amp;quot;, monospace; font-size: 14px; line-height: 19px; white-space: pre;&quot;&gt;&lt;div&gt;&lt;span style=&quot;color: #569cd6;&quot;&gt;public:&lt;/span&gt;&lt;/div&gt;&lt;br&gt;&lt;div&gt;&lt;span style=&quot;color: #6a9955;&quot;&gt;&amp;nbsp; // constructor&lt;/span&gt;&lt;/div&gt;&lt;div&gt;&amp;nbsp; &lt;span style=&quot;color: #dcdcaa;&quot;&gt;LazyObserver&lt;/span&gt;();&lt;/div&gt;&lt;div&gt;&lt;span style=&quot;color: #6a9955;&quot;&gt;&amp;nbsp; // deleted copy constructor and assignment to prevent unadvertent copy&lt;/span&gt;&lt;/div&gt;&lt;div&gt;&amp;nbsp; &lt;span style=&quot;color: #dcdcaa;&quot;&gt;LazyObserver&lt;/span&gt; &amp;nbsp; &amp;nbsp; &amp;nbsp; &amp;nbsp; &amp;nbsp; ( &lt;span style=&quot;color: #569cd6;&quot;&gt;const&lt;/span&gt; &lt;span style=&quot;color: #4ec9b0;&quot;&gt;LazyObserver&lt;/span&gt;&lt;span style=&quot;color: #d4d4d4;&quot;&gt;&amp;amp;&lt;/span&gt; &lt;span style=&quot;color: #9cdcfe;&quot;&gt;x&lt;/span&gt; ) &lt;span style=&quot;color: #d4d4d4;&quot;&gt;=&lt;/span&gt; &lt;span style=&quot;color: #c586c0;&quot;&gt;delete&lt;/span&gt;;&lt;/div&gt;&lt;div&gt;&amp;nbsp; &lt;span style=&quot;color: #4ec9b0;&quot;&gt;LazyObserver&lt;/span&gt;&lt;span style=&quot;color: #569cd6;&quot;&gt;&amp;amp;&lt;/span&gt; &lt;span style=&quot;color: #dcdcaa;&quot;&gt;operator=&lt;/span&gt;( &lt;span style=&quot;color: #569cd6;&quot;&gt;const&lt;/span&gt; &lt;span style=&quot;color: #4ec9b0;&quot;&gt;LazyObserver&lt;/span&gt;&lt;span style=&quot;color: #569cd6;&quot;&gt;&amp;amp;&lt;/span&gt; &lt;span style=&quot;color: #9cdcfe;&quot;&gt;x&lt;/span&gt; ) &lt;span style=&quot;color: #d4d4d4;&quot;&gt;=&lt;/span&gt; &lt;span style=&quot;color: #569cd6;&quot;&gt;delete&lt;/span&gt;;&lt;/div&gt;&lt;br&gt;&lt;div&gt;&lt;span style=&quot;color: #6a9955;&quot;&gt;&amp;nbsp; // destructor&lt;/span&gt;&lt;/div&gt;&lt;div&gt;&amp;nbsp; &lt;span style=&quot;color: #569cd6;&quot;&gt;virtual&lt;/span&gt; &lt;span style=&quot;color: #dcdcaa;&quot;&gt;~LazyObserver&lt;/span&gt;();&lt;/div&gt;&lt;br&gt;&lt;div&gt;&amp;nbsp; &lt;span style=&quot;color: #569cd6;&quot;&gt;virtual&lt;/span&gt; &lt;span style=&quot;color: #569cd6;&quot;&gt;void&lt;/span&gt; &lt;span style=&quot;color: #dcdcaa;&quot;&gt;lazyUpdate&lt;/span&gt;( &lt;span style=&quot;color: #569cd6;&quot;&gt;const&lt;/span&gt; &lt;span style=&quot;color: #4ec9b0;&quot;&gt;T&lt;/span&gt;&lt;span style=&quot;color: #569cd6;&quot;&gt;&amp;amp;&lt;/span&gt; &lt;span style=&quot;color: #9cdcfe;&quot;&gt;x&lt;/span&gt; );&lt;/div&gt;&lt;br&gt;&lt;div&gt;&amp;nbsp;&lt;span style=&quot;color: #569cd6;&quot;&gt;protected:&lt;/span&gt;&lt;/div&gt;&lt;br&gt;&lt;div&gt;&amp;nbsp; &lt;span style=&quot;color: #569cd6;&quot;&gt;virtual&lt;/span&gt; &lt;span style=&quot;color: #569cd6;&quot;&gt;void&lt;/span&gt; &lt;span style=&quot;color: #dcdcaa;&quot;&gt;update&lt;/span&gt;( &lt;span style=&quot;color: #569cd6;&quot;&gt;const&lt;/span&gt; &lt;span style=&quot;color: #4ec9b0;&quot;&gt;T&lt;/span&gt;&lt;span style=&quot;color: #569cd6;&quot;&gt;&amp;amp;&lt;/span&gt; &lt;span style=&quot;color: #9cdcfe;&quot;&gt;x&lt;/span&gt; ) &lt;span style=&quot;color: #d4d4d4;&quot;&gt;=&lt;/span&gt; &lt;span style=&quot;color: #b5cea8;&quot;&gt;0&lt;/span&gt;;&lt;/div&gt;&lt;div&gt;&amp;nbsp; &lt;span style=&quot;color: #569cd6;&quot;&gt;virtual&lt;/span&gt; &lt;span style=&quot;color: #569cd6;&quot;&gt;void&lt;/span&gt; &lt;span style=&quot;color: #dcdcaa;&quot;&gt;check&lt;/span&gt;();&lt;/div&gt;&lt;br&gt;&lt;div&gt;&amp;nbsp;&lt;span style=&quot;color: #569cd6;&quot;&gt;private:&lt;/span&gt;&lt;/div&gt;&lt;br&gt;&lt;div&gt;&amp;nbsp; &lt;span style=&quot;color: #569cd6;&quot;&gt;bool&lt;/span&gt; &lt;span style=&quot;color: #9cdcfe;&quot;&gt;upToDate&lt;/span&gt;;&lt;/div&gt;&lt;div&gt;&amp;nbsp; &lt;span style=&quot;color: #569cd6;&quot;&gt;bool&lt;/span&gt; &lt;span style=&quot;color: #9cdcfe;&quot;&gt;updating&lt;/span&gt;;&lt;/div&gt;&lt;div&gt;&amp;nbsp; &lt;span style=&quot;color: #569cd6;&quot;&gt;const&lt;/span&gt; &lt;span style=&quot;color: #4ec9b0;&quot;&gt;T&lt;/span&gt;&lt;span style=&quot;color: #569cd6;&quot;&gt;*&lt;/span&gt; &lt;span style=&quot;color: #9cdcfe;&quot;&gt;last&lt;/span&gt;;&lt;/div&gt;&lt;br&gt;&lt;/div&gt;" style="text;strokeColor=none;fillColor=none;align=left;verticalAlign=top;spacingLeft=4;spacingRight=4;overflow=hidden;rotatable=0;points=[[0,0.5],[1,0.5]];portConstraint=eastwest;whiteSpace=wrap;html=1;" vertex="1" parent="n8yumlOVsB6OTQwj1mip-108">
          <mxGeometry y="26" width="490" height="424" as="geometry" />
        </mxCell>
        <mxCell id="n8yumlOVsB6OTQwj1mip-112" value="&lt;b&gt;Singleton&lt;/b&gt;" style="swimlane;fontStyle=0;childLayout=stackLayout;horizontal=1;startSize=26;fillColor=none;horizontalStack=0;resizeParent=1;resizeParentMax=0;resizeLast=0;collapsible=1;marginBottom=0;whiteSpace=wrap;html=1;" vertex="1" parent="1">
          <mxGeometry x="-730" y="3875" width="190" height="190" as="geometry" />
        </mxCell>
        <mxCell id="n8yumlOVsB6OTQwj1mip-115" value="&lt;div style=&quot;color: rgb(204, 204, 204); background-color: rgb(31, 31, 31); font-family: Consolas, &amp;quot;Courier New&amp;quot;, monospace; font-size: 14px; line-height: 19px; white-space: pre;&quot;&gt;&lt;div&gt;&lt;span style=&quot;color: #569cd6;&quot;&gt;public:&lt;/span&gt;&lt;/div&gt;&lt;div&gt;&amp;nbsp; &lt;span style=&quot;color: rgb(86, 156, 214);&quot;&gt;static&lt;/span&gt; &lt;span style=&quot;color: rgb(78, 201, 176);&quot;&gt;T&lt;/span&gt;&lt;span style=&quot;color: rgb(86, 156, 214);&quot;&gt;*&lt;/span&gt; &lt;span style=&quot;color: rgb(220, 220, 170);&quot;&gt;instance&lt;/span&gt;();&lt;br&gt;&lt;/div&gt;&lt;div&gt;&amp;nbsp; &lt;span style=&quot;color: #569cd6;&quot;&gt;static&lt;/span&gt; &lt;span style=&quot;color: #569cd6;&quot;&gt;bool&lt;/span&gt; &lt;span style=&quot;color: #9cdcfe;&quot;&gt;verbose&lt;/span&gt;;&lt;/div&gt;&lt;br&gt;&lt;div&gt;&amp;nbsp;&lt;span style=&quot;color: #569cd6;&quot;&gt;protected:&lt;/span&gt;&lt;/div&gt;&lt;div&gt;&amp;nbsp; &lt;span style=&quot;color: #dcdcaa;&quot;&gt;Singleton&lt;/span&gt;();&lt;/div&gt;&lt;div&gt;&amp;nbsp; &lt;span style=&quot;color: #569cd6;&quot;&gt;virtual&lt;/span&gt; &lt;span style=&quot;color: #dcdcaa;&quot;&gt;~Singleton&lt;/span&gt;();&lt;/div&gt;&lt;br&gt;&lt;/div&gt;" style="text;strokeColor=none;fillColor=none;align=left;verticalAlign=top;spacingLeft=4;spacingRight=4;overflow=hidden;rotatable=0;points=[[0,0.5],[1,0.5]];portConstraint=eastwest;whiteSpace=wrap;html=1;" vertex="1" parent="n8yumlOVsB6OTQwj1mip-112">
          <mxGeometry y="26" width="190" height="164" as="geometry" />
        </mxCell>
        <mxCell id="n8yumlOVsB6OTQwj1mip-116" value="ActiveObserver" style="html=1;whiteSpace=wrap;" vertex="1" parent="1">
          <mxGeometry x="-230" y="780" width="110" height="50" as="geometry" />
        </mxCell>
        <mxCell id="n8yumlOVsB6OTQwj1mip-117" value="LazyObserver" style="html=1;whiteSpace=wrap;" vertex="1" parent="1">
          <mxGeometry x="-110" y="780" width="110" height="50" as="geometry" />
        </mxCell>
        <mxCell id="n8yumlOVsB6OTQwj1mip-118" value="Singleton" style="html=1;whiteSpace=wrap;" vertex="1" parent="1">
          <mxGeometry x="-350" y="780" width="110" height="50" as="geometry" />
        </mxCell>
        <mxCell id="n8yumlOVsB6OTQwj1mip-125" value="" style="endArrow=block;endFill=1;html=1;edgeStyle=orthogonalEdgeStyle;align=left;verticalAlign=top;rounded=0;entryX=0.5;entryY=0;entryDx=0;entryDy=0;" edge="1" parent="1" source="n8yumlOVsB6OTQwj1mip-48" target="n8yumlOVsB6OTQwj1mip-116">
          <mxGeometry x="-1" relative="1" as="geometry">
            <mxPoint x="-360" y="710" as="sourcePoint" />
            <mxPoint x="-170" y="840" as="targetPoint" />
            <Array as="points">
              <mxPoint x="-487" y="700" />
              <mxPoint x="-175" y="700" />
            </Array>
          </mxGeometry>
        </mxCell>
        <mxCell id="n8yumlOVsB6OTQwj1mip-127" value="" style="endArrow=block;endFill=1;html=1;edgeStyle=orthogonalEdgeStyle;align=left;verticalAlign=top;rounded=0;exitX=0.5;exitY=1;exitDx=0;exitDy=0;entryX=0.5;entryY=1;entryDx=0;entryDy=0;" edge="1" parent="1" source="n8yumlOVsB6OTQwj1mip-52" target="n8yumlOVsB6OTQwj1mip-116">
          <mxGeometry x="-1" relative="1" as="geometry">
            <mxPoint x="-270" y="690" as="sourcePoint" />
            <mxPoint x="-180" y="870" as="targetPoint" />
            <Array as="points">
              <mxPoint x="-650" y="920" />
              <mxPoint x="-175" y="920" />
            </Array>
          </mxGeometry>
        </mxCell>
        <mxCell id="n8yumlOVsB6OTQwj1mip-129" value="child" style="endArrow=block;endFill=1;html=1;edgeStyle=orthogonalEdgeStyle;align=left;verticalAlign=top;rounded=0;" edge="1" parent="1">
          <mxGeometry x="-1" relative="1" as="geometry">
            <mxPoint x="-730" y="210" as="sourcePoint" />
            <mxPoint x="-570" y="210" as="targetPoint" />
            <Array as="points">
              <mxPoint x="-670" y="210" />
              <mxPoint x="-670" y="210" />
            </Array>
          </mxGeometry>
        </mxCell>
        <mxCell id="n8yumlOVsB6OTQwj1mip-130" value="parent" style="edgeLabel;resizable=0;html=1;align=left;verticalAlign=bottom;" connectable="0" vertex="1" parent="n8yumlOVsB6OTQwj1mip-129">
          <mxGeometry x="-1" relative="1" as="geometry">
            <mxPoint x="140" y="20" as="offset" />
          </mxGeometry>
        </mxCell>
        <mxCell id="n8yumlOVsB6OTQwj1mip-131" value="ParticleReco" style="html=1;whiteSpace=wrap;" vertex="1" parent="1">
          <mxGeometry x="-650" y="1010" width="110" height="50" as="geometry" />
        </mxCell>
        <mxCell id="n8yumlOVsB6OTQwj1mip-132" value="" style="endArrow=block;endFill=1;html=1;edgeStyle=orthogonalEdgeStyle;align=left;verticalAlign=top;rounded=0;exitX=0.5;exitY=0;exitDx=0;exitDy=0;entryX=0.5;entryY=1;entryDx=0;entryDy=0;" edge="1" parent="1" source="n8yumlOVsB6OTQwj1mip-131" target="n8yumlOVsB6OTQwj1mip-118">
          <mxGeometry x="-1" relative="1" as="geometry">
            <mxPoint x="-594" y="990" as="sourcePoint" />
            <mxPoint x="-434" y="990" as="targetPoint" />
            <Array as="points">
              <mxPoint x="-595" y="990" />
              <mxPoint x="-295" y="990" />
            </Array>
          </mxGeometry>
        </mxCell>
        <mxCell id="n8yumlOVsB6OTQwj1mip-134" value="" style="endArrow=block;endFill=1;html=1;edgeStyle=orthogonalEdgeStyle;align=left;verticalAlign=top;rounded=0;entryX=0.5;entryY=1;entryDx=0;entryDy=0;" edge="1" parent="1" target="n8yumlOVsB6OTQwj1mip-117">
          <mxGeometry x="-1" relative="1" as="geometry">
            <mxPoint x="-590" y="1010" as="sourcePoint" />
            <mxPoint x="-285" y="840" as="targetPoint" />
            <Array as="points">
              <mxPoint x="-585" y="1000" />
              <mxPoint x="-55" y="1000" />
            </Array>
          </mxGeometry>
        </mxCell>
        <mxCell id="n8yumlOVsB6OTQwj1mip-135" value="&lt;b&gt;ParticleReco&lt;/b&gt;" style="swimlane;fontStyle=0;childLayout=stackLayout;horizontal=1;startSize=26;fillColor=none;horizontalStack=0;resizeParent=1;resizeParentMax=0;resizeLast=0;collapsible=1;marginBottom=0;whiteSpace=wrap;html=1;" vertex="1" parent="1">
          <mxGeometry x="-1590" y="4420" width="470" height="640" as="geometry" />
        </mxCell>
        <mxCell id="n8yumlOVsB6OTQwj1mip-136" value="&lt;div style=&quot;color: rgb(204, 204, 204); background-color: rgb(31, 31, 31); font-family: Consolas, &amp;quot;Courier New&amp;quot;, monospace; font-size: 14px; line-height: 19px; white-space: pre;&quot;&gt;&lt;div&gt;&lt;span style=&quot;color: #569cd6;&quot;&gt;public:&lt;/span&gt;&lt;/div&gt;&lt;br&gt;&lt;div&gt;&lt;span style=&quot;color: #6a9955;&quot;&gt;&amp;nbsp; // particle types&lt;/span&gt;&lt;/div&gt;&lt;div&gt;&amp;nbsp; &lt;span style=&quot;color: #569cd6;&quot;&gt;enum&lt;/span&gt; &lt;span style=&quot;color: #4ec9b0;&quot;&gt;ParticleType&lt;/span&gt; { &lt;span style=&quot;color: #4fc1ff;&quot;&gt;K0&lt;/span&gt;, &lt;span style=&quot;color: #4fc1ff;&quot;&gt;Lambda0&lt;/span&gt;, &lt;span style=&quot;color: #4fc1ff;&quot;&gt;unknown&lt;/span&gt; };&lt;/div&gt;&lt;br&gt;&lt;div&gt;&lt;span style=&quot;color: #6a9955;&quot;&gt;&amp;nbsp; // recompute informations for new event&lt;/span&gt;&lt;/div&gt;&lt;div&gt;&amp;nbsp; &lt;span style=&quot;color: #569cd6;&quot;&gt;void&lt;/span&gt; &lt;span style=&quot;color: #dcdcaa;&quot;&gt;update&lt;/span&gt;( &lt;span style=&quot;color: #569cd6;&quot;&gt;const&lt;/span&gt; &lt;span style=&quot;color: #4ec9b0;&quot;&gt;Event&lt;/span&gt;&lt;span style=&quot;color: #569cd6;&quot;&gt;&amp;amp;&lt;/span&gt; &lt;span style=&quot;color: #9cdcfe;&quot;&gt;ev&lt;/span&gt; ) &lt;span style=&quot;color: #569cd6;&quot;&gt;override&lt;/span&gt;;&lt;/div&gt;&lt;br&gt;&lt;div&gt;&lt;span style=&quot;color: #6a9955;&quot;&gt;&amp;nbsp; // return particle type&lt;/span&gt;&lt;/div&gt;&lt;div&gt;&amp;nbsp; &lt;span style=&quot;color: #4ec9b0;&quot;&gt;ParticleType&lt;/span&gt; &lt;span style=&quot;color: #dcdcaa;&quot;&gt;get_type&lt;/span&gt;();&lt;/div&gt;&lt;div&gt;&lt;span style=&quot;color: #6a9955;&quot;&gt;&amp;nbsp; // return particle energy&lt;/span&gt;&lt;/div&gt;&lt;div&gt;&amp;nbsp; &lt;span style=&quot;color: #569cd6;&quot;&gt;double&lt;/span&gt; &lt;span style=&quot;color: #dcdcaa;&quot;&gt;get_energy&lt;/span&gt;();&lt;/div&gt;&lt;div&gt;&lt;span style=&quot;color: #6a9955;&quot;&gt;&amp;nbsp; // return particle mass&lt;/span&gt;&lt;/div&gt;&lt;div&gt;&amp;nbsp; &lt;span style=&quot;color: #569cd6;&quot;&gt;double&lt;/span&gt; &lt;span style=&quot;color: #dcdcaa;&quot;&gt;get_mass&lt;/span&gt;();&lt;/div&gt;&lt;br&gt;&lt;div&gt;&amp;nbsp;&lt;span style=&quot;color: #569cd6;&quot;&gt;private:&lt;/span&gt;&lt;/div&gt;&lt;br&gt;&lt;div&gt;&lt;span style=&quot;color: #6a9955;&quot;&gt;&amp;nbsp; // private constructor and destructor for singleton&lt;/span&gt;&lt;/div&gt;&lt;div&gt;&amp;nbsp; &lt;span style=&quot;color: #dcdcaa;&quot;&gt;ParticleReco&lt;/span&gt;();&lt;/div&gt;&lt;div&gt;&lt;span style=&quot;color: #6a9955;&quot;&gt;&amp;nbsp; // deleted copy constructor and assignment to prevent unadvertent copy&lt;/span&gt;&lt;/div&gt;&lt;div&gt;&amp;nbsp; &lt;span style=&quot;color: #dcdcaa;&quot;&gt;ParticleReco&lt;/span&gt; &amp;nbsp; &amp;nbsp; &amp;nbsp; &amp;nbsp; &amp;nbsp; ( &lt;span style=&quot;color: #569cd6;&quot;&gt;const&lt;/span&gt; &lt;span style=&quot;color: #4ec9b0;&quot;&gt;ParticleReco&lt;/span&gt;&lt;span style=&quot;color: #d4d4d4;&quot;&gt;&amp;amp;&lt;/span&gt; &lt;span style=&quot;color: #9cdcfe;&quot;&gt;x&lt;/span&gt; ) &lt;span style=&quot;color: #d4d4d4;&quot;&gt;=&lt;/span&gt; &lt;span style=&quot;color: #c586c0;&quot;&gt;delete&lt;/span&gt;;&lt;/div&gt;&lt;div&gt;&amp;nbsp; &lt;span style=&quot;color: #4ec9b0;&quot;&gt;ParticleReco&lt;/span&gt;&lt;span style=&quot;color: #569cd6;&quot;&gt;&amp;amp;&lt;/span&gt; &lt;span style=&quot;color: #dcdcaa;&quot;&gt;operator=&lt;/span&gt;( &lt;span style=&quot;color: #569cd6;&quot;&gt;const&lt;/span&gt; &lt;span style=&quot;color: #4ec9b0;&quot;&gt;ParticleReco&lt;/span&gt;&lt;span style=&quot;color: #569cd6;&quot;&gt;&amp;amp;&lt;/span&gt; &lt;span style=&quot;color: #9cdcfe;&quot;&gt;x&lt;/span&gt; ) &lt;span style=&quot;color: #d4d4d4;&quot;&gt;=&lt;/span&gt; &lt;span style=&quot;color: #569cd6;&quot;&gt;delete&lt;/span&gt;;&lt;/div&gt;&lt;br&gt;&lt;div&gt;&lt;span style=&quot;color: #6a9955;&quot;&gt;&amp;nbsp; // destructor&lt;/span&gt;&lt;/div&gt;&lt;div&gt;&amp;nbsp; &lt;span style=&quot;color: #dcdcaa;&quot;&gt;~ParticleReco&lt;/span&gt;() &lt;span style=&quot;color: #569cd6;&quot;&gt;override&lt;/span&gt;;&lt;/div&gt;&lt;br&gt;&lt;div&gt;&lt;span style=&quot;color: #6a9955;&quot;&gt;&amp;nbsp; // particle type&lt;/span&gt;&lt;/div&gt;&lt;div&gt;&amp;nbsp; &lt;span style=&quot;color: #4ec9b0;&quot;&gt;ParticleType&lt;/span&gt; &lt;span style=&quot;color: #9cdcfe;&quot;&gt;decay_type&lt;/span&gt;;&lt;/div&gt;&lt;div&gt;&lt;span style=&quot;color: #6a9955;&quot;&gt;&amp;nbsp; // particle energy&lt;/span&gt;&lt;/div&gt;&lt;div&gt;&amp;nbsp; &lt;span style=&quot;color: #569cd6;&quot;&gt;double&lt;/span&gt; &lt;span style=&quot;color: #9cdcfe;&quot;&gt;total_energy&lt;/span&gt;;&lt;/div&gt;&lt;div&gt;&lt;span style=&quot;color: #6a9955;&quot;&gt;&amp;nbsp; // particle mass&lt;/span&gt;&lt;/div&gt;&lt;div&gt;&amp;nbsp; &lt;span style=&quot;color: #569cd6;&quot;&gt;double&lt;/span&gt; &lt;span style=&quot;color: #9cdcfe;&quot;&gt;particle_mass&lt;/span&gt;;&lt;/div&gt;&lt;br&gt;&lt;/div&gt;" style="text;strokeColor=none;fillColor=none;align=left;verticalAlign=top;spacingLeft=4;spacingRight=4;overflow=hidden;rotatable=0;points=[[0,0.5],[1,0.5]];portConstraint=eastwest;whiteSpace=wrap;html=1;" vertex="1" parent="n8yumlOVsB6OTQwj1mip-135">
          <mxGeometry y="26" width="470" height="614" as="geometry" />
        </mxCell>
        <mxCell id="n8yumlOVsB6OTQwj1mip-139" value="&lt;b&gt;Main&lt;/b&gt;&lt;div&gt;&lt;br&gt;&lt;/div&gt;&lt;div&gt;Registro le informazioni sull&#39;analisi da eseguire;&lt;/div&gt;&lt;div&gt;creo la sorgente dei dati (lettura da file o simulazione) con le info iniziali;&amp;nbsp;&lt;/div&gt;&lt;div&gt;creo una lista di analizzatori (ad esempio la scrittura su schermo e la produzione dei grafici);&lt;/div&gt;&lt;div&gt;per ogni analizzatore eseguo il lavoro specifico (inizio con beginJob(), eseguo con run() e termino con endJob().&lt;/div&gt;" style="html=1;whiteSpace=wrap;" vertex="1" parent="1">
          <mxGeometry x="-1347" y="530" width="294" height="200" as="geometry" />
        </mxCell>
        <mxCell id="n8yumlOVsB6OTQwj1mip-140" value="&lt;div style=&quot;color: rgb(204, 204, 204); background-color: rgb(31, 31, 31); font-family: Consolas, &amp;quot;Courier New&amp;quot;, monospace; font-size: 14px; line-height: 19px; white-space: pre;&quot;&gt;&lt;div&gt;&lt;span style=&quot;color: #569cd6;&quot;&gt;int&lt;/span&gt; &lt;span style=&quot;color: #dcdcaa;&quot;&gt;main&lt;/span&gt;( &lt;span style=&quot;color: #569cd6;&quot;&gt;int&lt;/span&gt; &lt;span style=&quot;color: #9cdcfe;&quot;&gt;argc&lt;/span&gt;, &lt;span style=&quot;color: #569cd6;&quot;&gt;char*&lt;/span&gt; &lt;span style=&quot;color: #9cdcfe;&quot;&gt;argv&lt;/span&gt;[] ) {&lt;/div&gt;&lt;div&gt;&amp;nbsp; &lt;span style=&quot;color: #4ec9b0;&quot;&gt;AnalysisInfo&lt;/span&gt;&lt;span style=&quot;color: #569cd6;&quot;&gt;*&lt;/span&gt; &lt;span style=&quot;color: #9cdcfe;&quot;&gt;info&lt;/span&gt; &lt;span style=&quot;color: #d4d4d4;&quot;&gt;=&lt;/span&gt; &lt;span style=&quot;color: #c586c0;&quot;&gt;new&lt;/span&gt; &lt;span style=&quot;color: #4ec9b0;&quot;&gt;AnalysisInfo&lt;/span&gt;( &lt;span style=&quot;color: #9cdcfe;&quot;&gt;argc&lt;/span&gt;, &lt;span style=&quot;color: #9cdcfe;&quot;&gt;argv&lt;/span&gt; );&lt;/div&gt;&lt;div&gt;&amp;nbsp; &lt;span style=&quot;color: rgb(78, 201, 176);&quot;&gt;EventSource&lt;/span&gt;&lt;span style=&quot;color: rgb(86, 156, 214);&quot;&gt;*&lt;/span&gt; &lt;span style=&quot;color: rgb(156, 220, 254);&quot;&gt;es&lt;/span&gt; &lt;span style=&quot;color: rgb(212, 212, 212);&quot;&gt;=&lt;/span&gt; &lt;span style=&quot;color: rgb(78, 201, 176);&quot;&gt;SourceFactory&lt;/span&gt;::&lt;span style=&quot;color: rgb(220, 220, 170);&quot;&gt;create&lt;/span&gt;( &lt;span style=&quot;color: rgb(156, 220, 254);&quot;&gt;info&lt;/span&gt; );&lt;/div&gt;&lt;div&gt;&amp;nbsp; &lt;span style=&quot;color: #4ec9b0;&quot;&gt;vector&lt;/span&gt;&amp;lt;&lt;span style=&quot;color: #4ec9b0;&quot;&gt;AnalysisSteering&lt;/span&gt;&lt;span style=&quot;color: #d4d4d4;&quot;&gt;*&lt;/span&gt;&amp;gt; &lt;span style=&quot;color: #9cdcfe;&quot;&gt;aList&lt;/span&gt; &lt;span style=&quot;color: #d4d4d4;&quot;&gt;=&lt;/span&gt; &lt;span style=&quot;color: #4ec9b0;&quot;&gt;AnalysisFactory&lt;/span&gt;::&lt;span style=&quot;color: #dcdcaa;&quot;&gt;create&lt;/span&gt;( &lt;span style=&quot;color: #9cdcfe;&quot;&gt;info&lt;/span&gt; );&lt;/div&gt;&lt;div&gt;&amp;nbsp; &lt;span style=&quot;color: #c586c0;&quot;&gt;for&lt;/span&gt; ( &lt;span style=&quot;color: #569cd6;&quot;&gt;auto&lt;/span&gt; &lt;span style=&quot;color: #9cdcfe;&quot;&gt;as&lt;/span&gt;: &lt;span style=&quot;color: #9cdcfe;&quot;&gt;aList&lt;/span&gt; ) &lt;span style=&quot;color: #9cdcfe;&quot;&gt;as&lt;/span&gt;-&amp;gt;&lt;span style=&quot;color: #dcdcaa;&quot;&gt;beginJob&lt;/span&gt;();&lt;/div&gt;&lt;div&gt;&amp;nbsp; &lt;span style=&quot;color: #9cdcfe;&quot;&gt;es&lt;/span&gt;-&amp;gt;&lt;span style=&quot;color: #dcdcaa;&quot;&gt;run&lt;/span&gt;();&lt;/div&gt;&lt;div&gt;&amp;nbsp; &lt;span style=&quot;color: #c586c0;&quot;&gt;for&lt;/span&gt; ( &lt;span style=&quot;color: #569cd6;&quot;&gt;auto&lt;/span&gt; &lt;span style=&quot;color: #9cdcfe;&quot;&gt;as&lt;/span&gt;: &lt;span style=&quot;color: #9cdcfe;&quot;&gt;aList&lt;/span&gt; ) &lt;span style=&quot;color: #9cdcfe;&quot;&gt;as&lt;/span&gt;-&amp;gt;&lt;span style=&quot;color: #dcdcaa;&quot;&gt;endJob&lt;/span&gt;();&lt;/div&gt;&lt;br&gt;&lt;div&gt;&amp;nbsp; &lt;span style=&quot;color: #c586c0;&quot;&gt;return&lt;/span&gt; &lt;span style=&quot;color: #b5cea8;&quot;&gt;0&lt;/span&gt;;&lt;/div&gt;&lt;/div&gt;" style="html=1;whiteSpace=wrap;" vertex="1" parent="1">
          <mxGeometry x="-1470" y="750" width="540" height="190" as="geometry" />
        </mxCell>
      </root>
    </mxGraphModel>
  </diagram>
</mxfile>
